<?xml version="1.0" encoding="UTF-8"?>
<svg xmlns="http://www.w3.org/2000/svg" xmlns:xlink="http://www.w3.org/1999/xlink" viewBox="0 0 675 250">
  <defs>
    <style>
      .cls-1 {
        fill: url(#_241-2);
      }

      .cls-2, .cls-3, .cls-4, .cls-5, .cls-6, .cls-7, .cls-8, .cls-9, .cls-10, .cls-11, .cls-12, .cls-13, .cls-14, .cls-15, .cls-16 {
        fill-rule: evenodd;
      }

      .cls-2, .cls-17, .cls-14 {
        fill: #d4a38b;
      }

      .cls-3 {
        fill: url(#_179-2);
      }

      .cls-18 {
        fill: url(#_945-3);
      }

      .cls-19 {
        fill: url(#_945);
      }

      .cls-4 {
        fill: url(#_441-6);
      }

      .cls-4, .cls-6, .cls-7, .cls-8, .cls-9, .cls-10, .cls-12, .cls-15 {
        opacity: .3;
      }

      .cls-4, .cls-7, .cls-8, .cls-9, .cls-10, .cls-12, .cls-15 {
        mix-blend-mode: screen;
      }

      .cls-20 {
        fill: #956d81;
      }

      .cls-21 {
        fill: #d2fff1;
      }

      .cls-22 {
        fill: url(#_178-10);
      }

      .cls-23 {
        fill: url(#_188);
      }

      .cls-5 {
        fill: #b4a3ae;
      }

      .cls-5, .cls-24, .cls-14, .cls-16, .cls-25 {
        opacity: .5;
      }

      .cls-5, .cls-14, .cls-26 {
        mix-blend-mode: soft-light;
      }

      .cls-27 {
        fill: url(#_178-6);
      }

      .cls-6 {
        fill: #e191e6;
      }

      .cls-6, .cls-24, .cls-13, .cls-16, .cls-28, .cls-25 {
        mix-blend-mode: multiply;
      }

      .cls-7 {
        fill: url(#_441-7);
      }

      .cls-29 {
        fill: url(#_945-2);
      }

      .cls-8 {
        fill: url(#_441-5);
      }

      .cls-30 {
        fill: url(#_178-12);
      }

      .cls-31 {
        fill: url(#_178-8);
      }

      .cls-32 {
        isolation: isolate;
      }

      .cls-33 {
        fill: url(#_178-7);
      }

      .cls-34 {
        fill: url(#_178-9);
      }

      .cls-35 {
        fill: url(#_188-3);
      }

      .cls-9 {
        fill: url(#_441-2);
      }

      .cls-36 {
        fill: url(#_178-3);
      }

      .cls-10 {
        fill: url(#_441-3);
      }

      .cls-37 {
        fill: url(#_241-3);
      }

      .cls-24, .cls-16 {
        fill: #773d66;
      }

      .cls-11 {
        fill: url(#_179);
      }

      .cls-12 {
        fill: url(#_441);
      }

      .cls-13, .cls-26, .cls-28 {
        opacity: .2;
      }

      .cls-13, .cls-28 {
        fill: #d499b6;
      }

      .cls-38 {
        fill: url(#_178-5);
      }

      .cls-39 {
        fill: url(#_178-2);
      }

      .cls-15 {
        fill: url(#_441-4);
      }

      .cls-40 {
        fill: url(#_178);
      }

      .cls-41 {
        fill: url(#_188-2);
      }

      .cls-42 {
        fill: url(#_178-11);
      }

      .cls-43 {
        fill: #201630;
      }

      .cls-44 {
        fill: url(#_241);
      }

      .cls-45 {
        fill: url(#_178-4);
      }
    </style>
    <linearGradient id="_945" data-name="  945" x1="5698.44" y1="7564.6" x2="5698.44" y2="7638.14" gradientTransform="translate(-1957.49 -2469.94) scale(.45 .36)" gradientUnits="userSpaceOnUse">
      <stop offset="0" stop-color="#afa2c5"/>
      <stop offset=".98" stop-color="#8a80a6"/>
    </linearGradient>
    <linearGradient id="_441" data-name="  441" x1="570.61" y1="250" x2="570.61" y2="223.43" gradientUnits="userSpaceOnUse">
      <stop offset="0" stop-color="#000"/>
      <stop offset=".12" stop-color="#161616"/>
      <stop offset=".36" stop-color="#515151"/>
      <stop offset=".71" stop-color="#aeaeae"/>
      <stop offset="1" stop-color="#fff"/>
    </linearGradient>
    <linearGradient id="_945-2" data-name="  945" x1="5215.73" x2="5215.73" xlink:href="#_945"/>
    <linearGradient id="_441-2" data-name="  441" x1="-164.07" y1="250" x2="-164.07" y2="228.2" gradientTransform="translate(291.92) rotate(-180) scale(1 -1)" xlink:href="#_441"/>
    <linearGradient id="_441-3" data-name="  441" x1="-140.69" y1="250" x2="-140.69" y2="228.21" gradientTransform="translate(291.92) rotate(-180) scale(1 -1)" xlink:href="#_441"/>
    <linearGradient id="_441-4" data-name="  441" x1="-125.07" y1="250" x2="-125.07" y2="227.99" gradientTransform="translate(291.92) rotate(-180) scale(1 -1)" xlink:href="#_441"/>
    <linearGradient id="_441-5" data-name="  441" x1="-151.37" y1="250" x2="-151.37" y2="227.98" gradientTransform="translate(291.92) rotate(-180) scale(1 -1)" xlink:href="#_441"/>
    <linearGradient id="_945-3" data-name="  945" x1="4661.68" x2="4661.68" xlink:href="#_945"/>
    <linearGradient id="_441-6" data-name="  441" x1="69.83" x2="69.83" y2="223.57" xlink:href="#_441"/>
    <linearGradient id="_441-7" data-name="  441" x1="175.77" x2="175.77" y2="222.84" xlink:href="#_441"/>
    <radialGradient id="_188" data-name="  188" cx="618.51" cy="123.67" fx="618.51" fy="123.67" r="113.29" gradientUnits="userSpaceOnUse">
      <stop offset="0" stop-color="#5c4b71"/>
      <stop offset="1" stop-color="#2f2d4d"/>
    </radialGradient>
    <radialGradient id="_241" data-name="  241" cx="618.59" cy="11.76" fx="618.59" fy="11.76" r="88.78" gradientUnits="userSpaceOnUse">
      <stop offset="0" stop-color="#3b3158"/>
      <stop offset="1" stop-color="#252242"/>
    </radialGradient>
    <radialGradient id="_188-2" data-name="  188" cx="368.59" fx="368.59" r="113.26" xlink:href="#_188"/>
    <radialGradient id="_241-2" data-name="  241" cx="368.59" fx="368.59" r="88.78" xlink:href="#_241"/>
    <radialGradient id="_188-3" data-name="  188" cx="122.09" fx="122.09" r="111.66" xlink:href="#_188"/>
    <radialGradient id="_241-3" data-name="  241" cx="122.09" fx="122.09" r="86.73" xlink:href="#_241"/>
    <radialGradient id="_178" data-name="  178" cx="584.59" cy="44.65" fx="584.59" fy="44.65" r="63.96" gradientUnits="userSpaceOnUse">
      <stop offset="0" stop-color="#b289c4"/>
      <stop offset=".75" stop-color="#806e97"/>
      <stop offset="1" stop-color="#705887"/>
    </radialGradient>
    <radialGradient id="_178-2" data-name="  178" cy="56.22" fy="56.22" r="63.95" xlink:href="#_178"/>
    <radialGradient id="_178-3" data-name="  178" cx="530.4" cy="37.95" fx="530.4" fy="37.95" r="3.65" xlink:href="#_178"/>
    <radialGradient id="_178-4" data-name="  178" cy="33" fy="33" r="63.95" xlink:href="#_178"/>
    <radialGradient id="_179" data-name="  179" cx="530.54" cy="35.24" fx="530.54" fy="35.24" r="2.86" gradientUnits="userSpaceOnUse">
      <stop offset="0" stop-color="#b2b6dc"/>
      <stop offset=".98" stop-color="#977395"/>
    </radialGradient>
    <radialGradient id="_178-5" data-name="  178" cx="369.18" cy="45.77" fx="369.18" fy="45.77" r="88.4" xlink:href="#_178"/>
    <radialGradient id="_178-6" data-name="  178" cx="369.18" cy="56.66" fx="369.18" fy="56.66" r="88.4" xlink:href="#_178"/>
    <radialGradient id="_178-7" data-name="  178" cx="284.97" cy="51.33" fx="284.97" fy="51.33" r="3.36" xlink:href="#_178"/>
    <radialGradient id="_178-8" data-name="  178" cx="369.18" cy="27.81" fx="369.18" fy="27.81" r="88.52" xlink:href="#_178"/>
    <radialGradient id="_178-9" data-name="  178" cx="122.09" cy="44.86" fx="122.09" fy="44.86" r="86.35" xlink:href="#_178"/>
    <radialGradient id="_178-10" data-name="  178" cx="122.09" cy="56.03" fx="122.09" fy="56.03" r="86.34" xlink:href="#_178"/>
    <radialGradient id="_178-11" data-name="  178" cx="148.99" cy="34.73" fx="148.99" fy="34.73" r="59.63" xlink:href="#_178"/>
    <radialGradient id="_178-12" data-name="  178" cx="122.09" cy="28.61" fx="122.09" fy="28.61" r="86.43" xlink:href="#_178"/>
    <radialGradient id="_179-2" data-name="  179" cx="230.83" cy="27.08" fx="230.83" fy="27.08" r="2.97" xlink:href="#_179"/>
  </defs>
  <g class="cls-32">
    <g id="Layer_2" data-name="Layer 2">
      <g id="bunker">
        <g>
          <g>
            <rect class="cls-19" x="494.18" y="223.81" width="180.82" height="26.19"/>
            <g>
              <polygon class="cls-14" points="675 237.2 585.86 237.84 604.02 244.22 675 243.34 675 237.2"/>
              <polygon class="cls-13" points="494.25 227.06 494.25 230.17 620 229.68 632.19 227.06 494.25 227.06"/>
              <polygon class="cls-14" points="675 230.31 658.01 226.57 563.22 226.57 582.02 231.32 675 231.32 675 230.31"/>
              <polygon class="cls-13" points="494.18 241.11 494.18 247.32 597.45 247.32 585.1 240.77 494.18 241.11"/>
            </g>
            <polygon class="cls-12" points="535.11 223.43 534.93 249.86 606.28 250 606.28 223.71 535.11 223.43"/>
            <rect class="cls-29" x="244.25" y="223.81" width="250" height="26.19"/>
            <g>
              <polygon class="cls-13" points="429.22 238.41 340.26 238.41 326.27 246.77 436.95 246.77 429.22 238.41"/>
              <path class="cls-13" d="M494.18,241.11v6.21l-36.23-.55-6.15-5.66s23.13.15,42.38,0Z"/>
              <polygon class="cls-14" points="472.65 234.99 464.7 230.17 372.98 230.17 361.8 235.99 472.65 234.99"/>
              <polygon class="cls-14" points="319.73 226.04 257.14 225.06 247.28 230.65 313.16 230.65 319.73 226.04"/>
              <polygon class="cls-13" points="335.7 236.61 256.68 235.81 268.84 231.56 343.49 231.56 335.7 236.61"/>
              <polygon class="cls-13" points="494.25 230.17 357.1 230.17 368.27 227.06 494.25 227.06 494.25 230.17"/>
            </g>
            <g>
              <polygon class="cls-9" points="457.48 228.2 456.57 250 454.5 250 455.6 228.2 457.48 228.2"/>
              <polygon class="cls-10" points="433.82 228.21 433.46 250 431.39 250 431.76 228.21 433.82 228.21"/>
              <polygon class="cls-15" points="417.89 227.99 417.5 250 416.47 250 416.08 227.99 417.89 227.99"/>
              <polygon class="cls-8" points="444.05 227.98 443.59 250 442.54 250 442.64 227.98 444.05 227.98"/>
            </g>
            <rect class="cls-18" y="223.81" width="244.18" height="26.19"/>
            <polygon class="cls-4" points="20.47 223.57 20.22 250 119.44 250 119.44 223.85 20.47 223.57"/>
            <g>
              <polygon class="cls-13" points="140.88 231.23 240.14 231.23 222.02 235.48 129.81 235.48 140.88 231.23"/>
              <polygon class="cls-14" points="142.37 238.08 234.77 238.08 215.8 244.48 126.74 244.48 142.37 238.08"/>
              <polygon class="cls-14" points="83.54 228.62 43.24 235.22 112.49 235.99 129.18 229.46 83.54 228.62"/>
              <polygon class="cls-13" points="64.79 236.91 0 235.22 0 230.73 86.21 230.73 64.79 236.91"/>
              <polygon class="cls-13" points="92.26 246.73 0 246.73 0 240.52 114.32 242.92 92.26 246.73"/>
            </g>
            <polygon class="cls-7" points="127.87 222.84 127.63 249.27 223.9 250 223.9 223.12 127.87 222.84"/>
            <polygon class="cls-6" points="223.61 222.83 223.36 250 263.3 250 263.3 223.68 223.61 222.83"/>
            <polygon class="cls-6" points="626.34 222.83 626.1 250 666.04 250 666.04 223.68 626.34 222.83"/>
          </g>
          <g>
            <rect class="cls-23" x="493.34" y="23.52" width="181.66" height="200.29"/>
            <rect class="cls-44" x="493.59" width="181.41" height="23.52"/>
            <g class="cls-26">
              <polygon class="cls-17" points="654.49 93.81 608.78 93.81 608.21 123.52 632.9 123.52 643.65 125 647.15 141.8 648.65 159.17 653.26 159.12 654.49 93.81"/>
              <polygon class="cls-17" points="519.27 66.4 504.28 66.21 503.84 93.61 519.78 93.46 519.27 66.4"/>
              <polygon class="cls-17" points="571.21 223.76 524.65 223.76 525.21 215.65 558.53 196.02 571.74 195.39 571.21 223.76"/>
              <polygon class="cls-17" points="675 203.26 669.4 202.21 669.4 207.46 675 208.71 675 203.26"/>
              <polygon class="cls-17" points="567.4 70.21 558.65 70.21 557.15 72.71 572.6 75.21 567.4 70.21"/>
              <polygon class="cls-17" points="594.4 28.19 583.65 28.19 583.65 47.46 620.48 49.71 620.48 46.71 594.4 28.19"/>
              <path class="cls-17" d="M675,117.47v15.24s-.62-.03,0-.13v-15.12Z"/>
            </g>
            <g>
              <polygon class="cls-28" points="573.7 160.05 589.34 159.87 591 127.08 588.38 125 588.5 115.58 574.54 115.02 573.7 160.05"/>
              <polygon class="cls-28" points="625.83 23.57 627 80.29 621.58 84.29 621.58 93.61 655.59 93.61 656.65 23.52 625.83 23.57"/>
              <polygon class="cls-28" points="574.74 93.81 504.94 93.81 504.48 122.4 574.16 123.58 574.74 93.81"/>
              <polygon class="cls-28" points="549.29 214.29 539.25 214.29 538.75 223.76 550 223.79 549.29 214.29"/>
              <polygon class="cls-28" points="505.85 194.3 505.85 200.96 520.88 197.63 520.88 195.39 505.85 194.3"/>
              <polygon class="cls-28" points="513.36 139.96 513.36 143.21 552.25 147.96 552.25 144.96 513.36 139.96"/>
              <polygon class="cls-28" points="534 71.33 534 75.21 549.29 78.46 549.29 77.21 534 71.33"/>
              <polygon class="cls-28" points="591 179.96 589.25 195.39 592 200.96 594.75 179.96 591 179.96"/>
              <polygon class="cls-28" points="675 102.21 672.25 132.71 666.5 132.71 670.75 96.71 675 102.21"/>
            </g>
            <rect class="cls-41" x="243.59" y="23.52" width="250" height="200.29"/>
            <rect class="cls-1" x="243.59" width="250" height="23.52"/>
            <g class="cls-25">
              <rect class="cls-20" x="243.59" y="93.61" width="250" height=".2"/>
              <polygon class="cls-20" points="381.27 160.96 493.59 160.96 493.59 161.16 381.27 161.16 243.59 160.18 243.59 159.98 381.27 160.96"/>
              <rect class="cls-20" x="289.74" y="23.61" width=".2" height="200.2"/>
              <polygon class="cls-20" points="371.24 223.77 365.74 23.48 365.94 23.48 371.44 223.77 371.24 223.77"/>
              <rect class="cls-20" x="448.76" y="23.53" width=".2" height="200.2"/>
            </g>
            <g class="cls-26">
              <polygon class="cls-17" points="299.48 120.04 300.32 160.38 332.07 160.61 331 119.37 299.48 120.04"/>
              <polygon class="cls-17" points="441.9 112.21 410.73 112.21 415.82 158.14 448.76 158.46 448.76 100.79 444.57 100.79 441.9 112.21"/>
              <polygon class="cls-17" points="488.4 93.61 489.15 63.58 448.97 62.58 448.97 93.61 488.4 93.61"/>
              <polygon class="cls-17" points="266.28 195.08 255.15 195.08 255.15 223.81 276.03 223.81 266.28 195.08"/>
              <polygon class="cls-2" points="289.94 50.96 366.28 55.45 365.74 23.48 289.94 23.61 289.94 50.96"/>
              <polygon class="cls-2" points="289.94 64.08 336.53 70.08 339.4 93.46 289.94 93.61 289.94 64.08"/>
              <polygon class="cls-17" points="250.9 74.29 246.65 71.33 246.65 77.75 257.65 92.21 257.65 88.79 250.9 74.29"/>
              <polygon class="cls-17" points="250.65 129.44 252.15 143.46 255.15 143.46 252.9 125 250.65 129.44"/>
              <polygon class="cls-17" points="357.4 168.71 355.9 168.71 357.4 181.71 358.59 180.21 357.4 168.71"/>
              <polygon class="cls-17" points="386.65 103.07 382.9 100.79 381.65 118.21 384.15 119.37 386.65 103.07"/>
              <polygon class="cls-17" points="375.15 49.21 371.44 49.21 373.3 67.46 375.15 66.46 375.15 49.21"/>
              <polygon class="cls-17" points="395.9 23.61 403.65 47.71 434.65 50.96 436.15 23.61 395.9 23.61"/>
              <polygon class="cls-17" points="468.15 191.49 469.06 202.46 473.4 202.46 470.78 191.49 468.15 191.49"/>
              <polygon class="cls-17" points="476.15 126.62 459.4 129.44 459.4 134.23 480.9 129.44 476.15 126.62"/>
            </g>
            <g>
              <polygon class="cls-28" points="289.74 93.81 268.28 93.81 269.19 111.87 289.74 112.33 289.74 93.81"/>
              <polygon class="cls-28" points="367.41 93.61 349.78 93.61 350.09 81.71 362.84 82 362.86 83.77 367.12 83.91 367.41 93.61"/>
              <polygon class="cls-28" points="344.48 93.81 345.15 160.7 332.07 160.61 330.48 99.54 303.32 99.96 302.9 93.81 344.48 93.81"/>
              <polygon class="cls-28" points="448.76 161.16 376.48 161.16 377.07 211.62 448.76 214.37 448.76 161.16"/>
              <polygon class="cls-28" points="260.78 166.21 263.15 190.08 289.74 193.21 289.74 160.51 262.53 160.31 260.78 166.21"/>
              <polygon class="cls-28" points="289.94 215.08 358.9 216.96 361.4 223.77 289.94 223.81 289.94 215.08"/>
              <polygon class="cls-13" points="309.42 52.1 289.94 50.96 289.94 64.08 324.95 68.59 324.03 52.97 309.42 52.1"/>
              <polygon class="cls-28" points="265.59 56.46 262.4 56.46 274.15 81.71 277.9 80.21 265.59 56.46"/>
              <polygon class="cls-28" points="406.15 64.08 400.15 69.08 401.9 86.12 404.9 86.12 406.15 64.08"/>
              <polygon class="cls-28" points="392.15 132.21 385.4 143.46 381.65 156.21 385.65 158.14 393.65 136.46 392.15 132.21"/>
              <polygon class="cls-28" points="345.15 201.46 337.15 202.46 327.15 214.37 361.4 212.46 361.4 204.96 345.15 201.46"/>
              <polygon class="cls-28" points="476.65 194.46 473.4 186.62 476.65 179.71 486.65 211.46 480.9 211.46 476.65 194.46"/>
            </g>
            <g>
              <polygon class="cls-13" points="260.75 4.78 255.25 18.26 338.75 18.26 352.88 7.69 260.75 4.78"/>
              <polygon class="cls-13" points="286.25 23.9 281 18.17 464.75 18.17 474.28 18.26 286.25 23.9"/>
            </g>
            <rect class="cls-35" y="23.52" width="244.18" height="200.29"/>
            <rect class="cls-37" width="244.18" height="23.52"/>
            <g class="cls-25">
              <rect class="cls-20" y="93.61" width="244.18" height=".2"/>
              <polygon class="cls-20" points="0 158.19 244.18 159.98 244.18 160.18 0 158.39 0 158.19"/>
              <polygon class="cls-20" points="58.64 223.81 51.49 23.62 51.69 23.61 58.84 223.81 58.64 223.81"/>
              <rect class="cls-20" x="130.28" y="23.61" width=".2" height="200.2" transform="translate(-.58 .62) rotate(-.27)"/>
              <polygon class="cls-20" points="209.72 223.81 209.52 223.81 214.96 23.52 215.16 23.52 209.72 223.81"/>
            </g>
            <g class="cls-26">
              <polygon class="cls-2" points="49.22 93.81 0 93.81 0 127.46 50.48 126.71 49.22 93.81"/>
              <polygon class="cls-2" points="125.66 93.61 102.99 93.61 100.55 23.61 125.37 23.61 125.66 93.61"/>
              <path class="cls-17" d="M8.55,186.37h-3.33s-.75,19.17-.5,19.17h3.42l.42-19.17Z"/>
              <polygon class="cls-17" points="193.8 223.81 193.18 188.71 160.68 185.83 158.43 159.58 126.19 159.16 126.52 223.81 193.8 223.81"/>
              <polygon class="cls-17" points="79.05 194.3 71.47 191.49 75.26 207.96 84.3 210.46 79.05 194.3"/>
              <polygon class="cls-17" points="82.8 171.71 82.8 176.76 88.55 176.76 88.55 173.21 82.8 171.71"/>
              <polygon class="cls-17" points="103.55 113.71 103.55 119.21 109.79 119.21 108.05 102.21 103.55 105.46 103.55 113.71"/>
              <polygon class="cls-17" points="180.55 64.08 172.05 59.96 172.05 64.08 190.3 77.75 190.3 71.33 180.55 64.08"/>
              <polygon class="cls-17" points="219.55 198.21 217.05 205.54 218.3 216.71 221.05 216.71 219.55 198.21"/>
            </g>
            <g>
              <polygon class="cls-13" points="126.98 159.16 165.12 159.44 165.12 153.24 137.44 152.8 136.78 146.52 201.47 146.52 201.84 93.81 126.65 93.81 126.98 159.16"/>
              <polygon class="cls-28" points="102.62 66.7 49.16 66.21 48.05 23.61 101.34 23.61 102.62 66.7"/>
              <polygon class="cls-28" points="234.47 159.93 213.47 159.65 216.59 98.96 233.22 99.58 234.47 159.93"/>
              <polygon class="cls-28" points="54.99 223.81 52.73 164.79 14.76 165.21 14.76 206.79 0 207.71 0 223.81 54.99 223.81"/>
              <polygon class="cls-13" points="199.93 23.61 197.18 93.61 209.67 93.61 211.32 23.52 199.93 23.61"/>
              <polygon class="cls-28" points="74.59 119.46 72.26 131.62 79.93 132.79 85.09 113.12 74.43 112.46 74.59 119.46"/>
              <polygon class="cls-28" points="23.12 59.96 16.43 61.29 16.43 80.46 25.26 79.29 23.12 59.96"/>
              <polygon class="cls-28" points="111.26 66.7 108.93 66.7 107.26 88.79 113.9 88.79 111.26 66.7"/>
              <polygon class="cls-28" points="160.79 77.75 149.43 74.29 149.43 82.46 171.09 86.12 164.25 77.75 160.79 77.75"/>
              <polygon class="cls-28" points="7.4 132.71 3.59 132.79 2.09 153.96 7.4 155.96 7.4 132.71"/>
              <polygon class="cls-28" points="80.09 140.71 76.84 140.71 72.26 155.96 76.18 155.96 80.09 140.71"/>
              <polygon class="cls-28" points="80.09 197.71 90.09 197.71 96.09 218.79 91.59 218.79 80.09 197.71"/>
              <polygon class="cls-28" points="218.93 167.79 218.93 185.96 222.59 185.96 221.84 164.79 218.93 167.79"/>
            </g>
            <polygon class="cls-13" points="8.55 8.82 142.02 8.82 143.49 3.1 2.09 3.1 8.55 8.82"/>
            <g class="cls-25">
              <rect class="cls-20" x="493.59" y="93.61" width="181.41" height=".2"/>
              <polygon class="cls-20" points="675 158.87 493.59 160.96 493.59 161.16 675 159.07 675 158.87"/>
              <rect class="cls-20" x="553.74" y="123.57" width="200.32" height=".2" transform="translate(518.49 775.24) rotate(-88.97)"/>
              <rect class="cls-20" x="472.94" y="123.57" width="200.23" height=".2" transform="translate(439.09 694.4) rotate(-88.97)"/>
              <polygon class="cls-20" points="501.75 223.77 501.55 223.76 504.55 23.52 504.75 23.52 501.75 223.77"/>
            </g>
            <path class="cls-24" d="M675,23.52v-3.28c-106.71-.22-181.41-.29-181.41-.29-83.34.28-168.64.41-250,.43v-.33c-90.25.02-169.69-.08-243.59-.25v3.13h243.59v.33h250v.26h181.41Z"/>
            <path class="cls-5" d="M675,14.33c-99.29-4.38-320.8-11.5-464.21-9.2C20.02,8.19,3.68,16.28,18.56,17.34c38.74,2.74,500.37,2.07,656.44.81v-3.82Z"/>
            <path class="cls-16" d="M675,42.53V0H0v40.83c69.55-1.36,244.18-1.36,244.18-1.36,0,0,21.64-1.03,27.26-1.12,60.35-.93,336.07-3.22,403.56,4.18Z"/>
          </g>
          <g>
            <g>
              <polygon class="cls-24" points="675 45.9 494.18 46.1 494.18 50.37 675 49.65 675 45.9"/>
              <polygon class="cls-24" points="675 57.37 494.18 56.87 494.18 61.4 675 61.12 675 57.37"/>
              <path class="cls-16" d="M675,33.69h-180.82v3.49l31.48.26,1.38,1.42v5.65s.46.68,1.87.68c1.25,0,1.88-.67,1.88-.67v-5.66l2.12-1.42h142.1v-3.75Z"/>
              <polygon class="cls-40" points="675 42.74 530.78 42.12 527.03 42.11 494.18 43.43 494.18 47.18 675 46.49 675 42.74"/>
              <polygon class="cls-39" points="675 54.21 494.18 54.47 494.18 58.22 675 57.96 675 54.21"/>
              <path class="cls-36" d="M532.28,42.09s-.62.67-1.88.67c-1.42,0-1.87-.69-1.87-.69v-8.59s.62-.35,1.87-.35c1.33,0,1.87.35,1.87.35v8.61Z"/>
              <polygon class="cls-45" points="675 31.26 494.18 30.99 494.18 34.74 675 35.01 675 31.26"/>
              <path class="cls-11" d="M526.67,34.79s2.85-1.66,7.73.01l-2.12,1.62s0-.54-1.87-.54-1.87.54-1.87.54l-1.85-1.63Z"/>
            </g>
            <g>
              <polygon class="cls-24" points="367.24 47.51 494.18 46.62 494.18 50.37 367.25 51.26 291.77 50.94 292.14 54.97 292.43 58.12 346.49 58.27 494.18 57.65 494.18 61.4 346.5 62.02 244.18 61.41 244.18 57.98 288.01 58.1 288.01 50.92 244.18 50.41 244.18 46.99 367.24 47.51"/>
              <path class="cls-16" d="M475.11,33.43h19.06v3.75h-19.82c-.49,0-.95-.19-1.3-.53l-2.24-2.17-7.66-7.41h-.08l-218.9,1.95v-3.43l219.71-2.28c.35,0,.69.09.98.27.12.07.24.16.35.26l7.39,7.16,2.52,2.44Z"/>
              <polygon class="cls-38" points="361.99 44.35 494.18 43.43 494.18 47.18 362 48.1 244.18 47.27 244.18 43.52 361.99 44.35"/>
              <polygon class="cls-27" points="341.24 55.1 494.18 54.47 494.18 58.22 341.25 58.85 244.18 58.26 244.18 54.51 288.01 54.96 292.14 54.97 341.24 55.1"/>
              <path class="cls-33" d="M282.76,54.94v-7.18s.65-.64,1.94-.64,1.83.66,1.83.66l.65,7.18s-.67.59-2.21.59c-1.86,0-2.21-.6-2.21-.6Z"/>
              <path class="cls-31" d="M494.18,30.99v3.75h-22.41c-.34,0-.67-.09-.95-.27-.12-.07-.24-.16-.35-.26l-7.38-7.15-2.51-2.43-216.39,1.93v-3.75l217.12-1.93c.5,0,.97.18,1.32.53l2.24,2.18,7.66,7.42h21.65Z"/>
              <path class="cls-21" d="M247.03,58.27s70.29,1.42,118.83,1.42,127.04-1.47,127.04-1.47l-245.87.05Z"/>
            </g>
            <g>
              <polygon class="cls-24" points="0 45.6 244.18 46.66 244.18 50.41 0 49.35 0 45.6"/>
              <polygon class="cls-24" points="0 56.97 244.18 57.66 244.18 61.41 0 60.72 0 56.97"/>
              <path class="cls-16" d="M29.34,27.5l214.84-2.24v3.75l-6.72.07-2,1.62s-.02-.02-.06-.06l-.19,5.05c-.04.99-.84,1.78-1.83,1.81l-160.49,3.67-.5,1.6-.76,2.42s-.48.65-2.05.65-1.88-.67-1.88-.67l.76-2.42,1.25-3.99c.24-.77.94-1.3,1.75-1.31l160.07-3.66.11-3.09-2.24-1.54-198.77,2.07-1.81,4.44c-.29.7-.97,1.17-1.74,1.17H0v-3.75h25.82l1.8-4.43c.28-.7.96-1.16,1.72-1.17Z"/>
              <polygon class="cls-34" points="72.38 42.78 244.18 43.52 244.18 47.27 0 46.2 0 42.45 68.46 42.76 72.38 42.78"/>
              <polygon class="cls-22" points="0 53.81 244.18 54.51 244.18 58.26 0 57.56 0 53.81"/>
              <path class="cls-42" d="M69.03,42.77s-.48.65-2.05.65-1.88-.67-1.88-.67l2-6.41c.24-.77.94-1.3,1.75-1.32l160.07-3.66.18-4.95s.62-.37,1.87-.37,1.87.51,1.87.51l-.25,6.72c-.04.99-.84,1.78-1.83,1.8l-160.49,3.67-1.26,4.02Z"/>
              <path class="cls-30" d="M26.75,25.07l217.43-2.26v3.75l-216.14,2.25-1.81,4.44c-.29.7-.98,1.17-1.74,1.17H0v-3.75h23.23l1.8-4.43c.28-.7.96-1.16,1.72-1.17Z"/>
              <path class="cls-3" d="M226.8,26.73s3.19-1.83,8.06-.08l-2,1.62s-1.45-1.5-3.82,0l-2.24-1.54Z"/>
              <path class="cls-21" d="M2.09,57.58s203.14,1.57,238.64.66l-238.64-.66Z"/>
            </g>
          </g>
          <g>
            <g>
              <rect class="cls-43" x="265.02" y="66.26" width=".75" height="26.77" transform="translate(-1.48 5.11) rotate(-1.1)"/>
              <rect class="cls-43" x="363.21" y="66.25" width=".75" height="8.15"/>
              <rect class="cls-43" x="306.36" y="66.25" width=".75" height="113.21"/>
              <path class="cls-43" d="M352.87,151.22h-.75c.03-15.24-.26-38.29-1.17-40.17-2.24-.27-32.52-.63-44.22-.75v-.75c4.41.04,43.07.44,44.5.79.5.12,1.17.28,1.5,20.75.16,9.97.14,20.04.14,20.14Z"/>
              <path class="cls-43" d="M494.18,66.2v.75c-66.51-.28-146.53-.44-237.04-.44h-1.79c-3.43,0-7.75,0-11.17,0v-.75c2.82,0,6.53,0,9.35,0,88.9,0,171.81.15,240.65.43Z"/>
              <rect class="cls-43" x="320.75" y="108.51" width=".75" height="3.13"/>
              <rect class="cls-43" x="403.99" y="64.08" width=".75" height="3.92"/>
              <rect class="cls-43" x="305.74" y="87.71" width="2.29" height=".75"/>
              <rect class="cls-43" x="306.51" y="125.95" width=".75" height="3.21" transform="translate(1.03 257.55) rotate(-45.6)"/>
              <rect class="cls-43" x="257.18" y="64.72" width=".75" height="3.07" transform="translate(-8.1 53.9) rotate(-11.76)"/>
              <path class="cls-43" d="M469.52,66.2c.42,10.25.79,20.69,1.07,29.74l.75-.02c-.09-3.06-.48-15.55-1.06-29.72h-.76Z"/>
            </g>
            <g>
              <path class="cls-43" d="M654.26,94.52c-.6-26.38-1.22-26.81-1.55-27.04-.26-.18-.81-.56-39.72-1.01-24.19-.28-58.36-.04-101.72-.26-5.55-.03-11.32.02-17.09,0,.07.24-.01.5,0,.75,93.4.42,154.87.48,158.08,1.15.86,2.2,1.61,45.83,1.24,71.86h.75c0-.14.31-32.49.02-45.44Z"/>
              <path class="cls-43" d="M646.81,141.31c.05-4.67.91-65.37-1.1-68.14-.21-.29-.57-.95-9.81-1.54-5.2-.33-12.42-.59-20.35-.73-14.15-.25-52.6-.25-57.56.52-1.16.18-1.61.37-1.7.74-.5,2.06-.82,26.77-.84,27.83h.75c.11-8.73.42-25.54.8-27.57,1.2-.67,35.36-1.06,54.83-.82,20.77.26,32.44,1.2,33.23,1.99,1.02,1.68,1.45,37.53.73,67.73h1Z"/>
              <rect class="cls-43" x="627.59" y="65.58" width=".75" height="2.88" transform="translate(-2.09 110.12) rotate(-10)"/>
              <rect class="cls-43" x="644.56" y="79.56" width="3.24" height=".75" transform="translate(-4.6 100.61) rotate(-8.87)"/>
              <rect class="cls-43" x="557.66" y="70.25" width=".75" height="2.81" transform="translate(-3.06 112.97) rotate(-11.53)"/>
              <rect class="cls-43" x="554.18" y="93.28" width="3.49" height=".75" transform="translate(-7.65 107.88) rotate(-11.01)"/>
              <rect class="cls-43" x="540.58" y="65.35" width=".75" height="2.65"/>
            </g>
            <g>
              <rect class="cls-43" x="119.75" y="66.48" width=".75" height="7.99"/>
              <path class="cls-43" d="M119.81,65.96c.02.25.04.5.05.74,39.68-.07,81.5-.11,124.32-.12v-.75c-41.76,0-83.79.05-124.37.12Z"/>
              <rect class="cls-43" x="144.44" y="64.79" width=".75" height="3.39" transform="translate(-14.29 75.26) rotate(-27.81)"/>
            </g>
          </g>
        </g>
      </g>
    </g>
  </g>
</svg>