<?xml version="1.0" encoding="UTF-8"?>
<svg xmlns="http://www.w3.org/2000/svg" xmlns:xlink="http://www.w3.org/1999/xlink" viewBox="0 0 184.01 134.66">
  <defs>
    <style>
      .cls-1 {
        fill: url(#_216-10);
      }

      .cls-2 {
        fill: aqua;
      }

      .cls-3 {
        fill: url(#_305-4);
      }

      .cls-4 {
        fill: url(#_596-2);
      }

      .cls-5 {
        fill: url(#_372-10);
      }

      .cls-6 {
        fill: url(#_245-6);
      }

      .cls-7 {
        fill: url(#_94-2);
      }

      .cls-8 {
        fill: url(#_302-10);
      }

      .cls-9 {
        fill: url(#_216-5);
      }

      .cls-10 {
        fill: url(#_305-7);
      }

      .cls-11 {
        fill: url(#_302-5);
      }

      .cls-12 {
        fill: url(#_372-17);
      }

      .cls-13 {
        fill: #6c578b;
        opacity: .65;
      }

      .cls-14 {
        fill: url(#_302-11);
      }

      .cls-15 {
        fill: url(#_372-5);
      }

      .cls-16 {
        fill: #3e3056;
      }

      .cls-17 {
        fill: url(#_711-7);
      }

      .cls-18 {
        fill: url(#_245);
      }

      .cls-19 {
        fill: url(#_94-4);
      }

      .cls-20 {
        fill: url(#_305-13);
      }

      .cls-21 {
        fill: url(#_302-2);
      }

      .cls-22 {
        opacity: .47;
      }

      .cls-22, .cls-23, .cls-24 {
        fill: #fff;
      }

      .cls-22, .cls-25 {
        mix-blend-mode: soft-light;
      }

      .cls-26 {
        fill: url(#_360-2);
      }

      .cls-27 {
        fill: url(#_372-4);
      }

      .cls-28 {
        fill: url(#_711-15);
      }

      .cls-29 {
        fill: url(#_85-8);
      }

      .cls-29, .cls-30, .cls-31, .cls-32, .cls-33, .cls-34, .cls-35, .cls-36, .cls-37, .cls-38, .cls-39, .cls-40, .cls-41, .cls-42 {
        mix-blend-mode: multiply;
      }

      .cls-29, .cls-30, .cls-31, .cls-34, .cls-36, .cls-40, .cls-41, .cls-42 {
        opacity: .6;
      }

      .cls-43 {
        fill: url(#_367-5);
      }

      .cls-44 {
        fill: url(#_267);
      }

      .cls-44, .cls-45, .cls-46, .cls-47, .cls-48, .cls-49, .cls-50, .cls-38, .cls-51, .cls-52, .cls-53, .cls-54 {
        fill-rule: evenodd;
      }

      .cls-30 {
        fill: url(#_85-7);
      }

      .cls-55 {
        fill: url(#_711-8);
      }

      .cls-31 {
        fill: url(#_85);
      }

      .cls-45 {
        fill: #4d67a1;
      }

      .cls-56 {
        fill: url(#_711);
      }

      .cls-57 {
        fill: url(#_353-4);
      }

      .cls-58 {
        fill: url(#_353-2);
      }

      .cls-32 {
        fill: #b3244f;
      }

      .cls-32, .cls-35, .cls-39 {
        opacity: .5;
      }

      .cls-59 {
        fill: url(#_372-3);
      }

      .cls-60 {
        fill: url(#_382-8);
      }

      .cls-60, .cls-61, .cls-62, .cls-63, .cls-24, .cls-64, .cls-65, .cls-66, .cls-67, .cls-68, .cls-69 {
        mix-blend-mode: screen;
      }

      .cls-70 {
        fill: url(#_245-7);
      }

      .cls-71 {
        fill: url(#_216-12);
      }

      .cls-72 {
        fill: url(#_216-11);
      }

      .cls-73 {
        fill: url(#_216-13);
      }

      .cls-74 {
        fill: url(#_711-29);
      }

      .cls-46 {
        fill: url(#_1433);
      }

      .cls-75 {
        fill: url(#_711-10);
      }

      .cls-76 {
        fill: url(#_372-9);
      }

      .cls-77 {
        fill: url(#_1428);
      }

      .cls-78 {
        fill: url(#_711-13);
      }

      .cls-79 {
        fill: #462552;
      }

      .cls-80 {
        fill: url(#_372-14);
      }

      .cls-81 {
        fill: url(#_623);
      }

      .cls-82 {
        fill: url(#_711-6);
      }

      .cls-83 {
        fill: url(#_773);
      }

      .cls-84 {
        fill: url(#_780);
      }

      .cls-85 {
        fill: url(#_360);
      }

      .cls-86 {
        fill: url(#_302-16);
      }

      .cls-87 {
        fill: url(#_372-24);
      }

      .cls-33 {
        fill: #3f2485;
        opacity: .8;
      }

      .cls-88 {
        fill: url(#_711-23);
      }

      .cls-89 {
        fill: url(#_372);
      }

      .cls-34 {
        fill: url(#_85-4);
      }

      .cls-90 {
        fill: url(#_711-9);
      }

      .cls-91 {
        fill: url(#_711-5);
      }

      .cls-92 {
        fill: url(#_353-3);
      }

      .cls-61 {
        fill: url(#_382);
      }

      .cls-47 {
        fill: url(#_216-9);
      }

      .cls-93 {
        fill: url(#_773-4);
      }

      .cls-94 {
        fill: url(#_115-3);
      }

      .cls-62 {
        fill: url(#_1932);
      }

      .cls-63 {
        fill: url(#_1932-2);
      }

      .cls-95 {
        fill: url(#_94-5);
      }

      .cls-96 {
        fill: url(#_94);
      }

      .cls-97 {
        fill: url(#_372-7);
      }

      .cls-98 {
        fill: url(#_372-2);
      }

      .cls-99 {
        fill: url(#_305-12);
      }

      .cls-100 {
        fill: url(#_367-4);
      }

      .cls-101 {
        fill: url(#_372-22);
      }

      .cls-102 {
        fill: url(#_305-14);
      }

      .cls-103 {
        fill: url(#_349);
      }

      .cls-48 {
        fill: url(#_216-8);
      }

      .cls-104 {
        fill: url(#_302-3);
      }

      .cls-105 {
        isolation: isolate;
      }

      .cls-106 {
        fill: url(#_216);
      }

      .cls-107 {
        fill: url(#_372-15);
      }

      .cls-24 {
        opacity: .3;
      }

      .cls-108 {
        fill: url(#_199-3);
      }

      .cls-109 {
        fill: url(#_232-2);
      }

      .cls-110 {
        fill: url(#_305-2);
      }

      .cls-111 {
        fill: url(#_372-20);
      }

      .cls-112 {
        fill: url(#_372-23);
      }

      .cls-25 {
        fill: #bbc4ff;
        opacity: .77;
      }

      .cls-35 {
        fill: #773d66;
      }

      .cls-113 {
        fill: url(#_711-26);
      }

      .cls-114 {
        fill: url(#_367);
      }

      .cls-115 {
        fill: url(#_711-16);
      }

      .cls-116 {
        fill: url(#_711-12);
      }

      .cls-117 {
        fill: url(#_302-6);
      }

      .cls-118 {
        fill: #d61981;
      }

      .cls-119 {
        fill: url(#_302-15);
      }

      .cls-120 {
        fill: url(#_372-11);
      }

      .cls-36 {
        fill: url(#_85-6);
      }

      .cls-121 {
        fill: url(#_245-2);
      }

      .cls-49 {
        fill: url(#_1433-3);
      }

      .cls-50 {
        fill: #cf9c8e;
      }

      .cls-122 {
        fill: url(#_372-6);
      }

      .cls-123 {
        fill: url(#_596);
      }

      .cls-124 {
        fill: url(#_711-3);
      }

      .cls-125 {
        fill: url(#_773-5);
      }

      .cls-126 {
        fill: url(#_711-11);
      }

      .cls-127 {
        fill: url(#_305-15);
      }

      .cls-64 {
        fill: url(#_382-7);
      }

      .cls-128 {
        fill: url(#_367-6);
      }

      .cls-129 {
        fill: url(#_711-22);
      }

      .cls-65 {
        fill: url(#_382-4);
      }

      .cls-130 {
        fill: url(#_711-14);
      }

      .cls-131 {
        fill: url(#_372-8);
      }

      .cls-132 {
        fill: url(#_245-3);
      }

      .cls-133 {
        fill: url(#_711-27);
      }

      .cls-134 {
        fill: url(#_711-25);
      }

      .cls-135 {
        fill: url(#_780-2);
      }

      .cls-136 {
        fill: url(#_115);
      }

      .cls-137 {
        fill: url(#_222);
      }

      .cls-138 {
        fill: url(#_711-20);
      }

      .cls-139 {
        fill: url(#_305-10);
      }

      .cls-140 {
        fill: url(#_216-4);
      }

      .cls-141 {
        fill: url(#_302-9);
      }

      .cls-142 {
        fill: url(#_711-28);
      }

      .cls-143 {
        fill: url(#_302-4);
      }

      .cls-37 {
        fill: #6bb8c7;
      }

      .cls-37, .cls-38 {
        opacity: .4;
      }

      .cls-144 {
        fill: url(#_372-18);
      }

      .cls-145 {
        fill: url(#_773-2);
      }

      .cls-146 {
        fill: url(#_216-3);
      }

      .cls-147 {
        fill: url(#_353);
      }

      .cls-148 {
        fill: url(#_232);
      }

      .cls-149 {
        fill: url(#_711-4);
      }

      .cls-150 {
        fill: url(#_245-5);
      }

      .cls-151 {
        fill: url(#_302-7);
      }

      .cls-152 {
        fill: url(#_305-9);
      }

      .cls-153 {
        fill: url(#_349-2);
      }

      .cls-154 {
        fill: url(#_372-19);
      }

      .cls-155 {
        fill: url(#_302-8);
      }

      .cls-38 {
        fill: #9a1e44;
      }

      .cls-156 {
        fill: url(#_372-13);
      }

      .cls-66 {
        fill: url(#_382-6);
      }

      .cls-157 {
        fill: url(#_711-18);
      }

      .cls-158 {
        fill: url(#_302-12);
      }

      .cls-39 {
        fill: #772a77;
      }

      .cls-159 {
        fill: url(#_115-2);
      }

      .cls-160 {
        fill: url(#_302-14);
      }

      .cls-161 {
        fill: url(#_302);
      }

      .cls-51 {
        fill: url(#_1433-2);
      }

      .cls-40 {
        fill: url(#_85-3);
      }

      .cls-41 {
        fill: url(#_85-5);
      }

      .cls-162 {
        fill: url(#_305);
      }

      .cls-42 {
        fill: url(#_85-2);
      }

      .cls-163 {
        fill: url(#_305-5);
      }

      .cls-164 {
        fill: url(#_216-2);
      }

      .cls-165 {
        fill: url(#_305-6);
      }

      .cls-166 {
        fill: url(#_711-21);
      }

      .cls-52 {
        fill: url(#_177);
      }

      .cls-67 {
        fill: url(#_382-2);
      }

      .cls-167 {
        fill: #484265;
      }

      .cls-168 {
        fill: url(#_711-24);
      }

      .cls-169 {
        fill: url(#_1440);
      }

      .cls-68 {
        fill: url(#_382-3);
      }

      .cls-170 {
        fill: url(#_367-3);
      }

      .cls-171 {
        fill: url(#_302-13);
      }

      .cls-172 {
        fill: url(#_372-16);
      }

      .cls-173 {
        fill: url(#_711-19);
      }

      .cls-174 {
        fill: url(#_711-2);
      }

      .cls-175 {
        fill: url(#_773-3);
      }

      .cls-176 {
        fill: url(#_372-12);
      }

      .cls-177 {
        fill: url(#_199);
      }

      .cls-178 {
        fill: url(#_711-17);
      }

      .cls-179 {
        fill: url(#_245-4);
      }

      .cls-180 {
        fill: url(#_372-21);
      }

      .cls-181 {
        fill: url(#_216-6);
      }

      .cls-182 {
        fill: #82242c;
      }

      .cls-183 {
        fill: url(#_305-11);
      }

      .cls-184 {
        fill: url(#_94-3);
      }

      .cls-185 {
        fill: url(#_367-2);
      }

      .cls-186 {
        fill: url(#_305-8);
      }

      .cls-53 {
        fill: url(#_216-7);
      }

      .cls-54 {
        fill: url(#_199-2);
      }

      .cls-187 {
        fill: url(#_305-3);
      }

      .cls-69 {
        fill: url(#_382-5);
      }
    </style>
    <linearGradient id="_199" data-name="  199" x1="0" y1="93.4" x2="16.04" y2="93.4" gradientUnits="userSpaceOnUse">
      <stop offset=".02" stop-color="#e29aa7"/>
      <stop offset=".84" stop-color="#ffead2"/>
    </linearGradient>
    <linearGradient id="_773" data-name="  773" x1="91.33" y1="0" x2="91.33" y2="63.45" gradientUnits="userSpaceOnUse">
      <stop offset="0" stop-color="#9c88bb"/>
      <stop offset=".77" stop-color="#baadcf"/>
      <stop offset="1" stop-color="#d1cbde"/>
    </linearGradient>
    <linearGradient id="_711" data-name="  711" x1="34.92" y1="32" x2="44.21" y2="32" gradientUnits="userSpaceOnUse">
      <stop offset="0" stop-color="#736198"/>
      <stop offset="1" stop-color="#553461"/>
    </linearGradient>
    <linearGradient id="_711-2" data-name="  711" x1="139.94" y1="31.68" x2="147.74" y2="31.68" xlink:href="#_711"/>
    <linearGradient id="_711-3" data-name="  711" x1="10.28" y1="34.68" x2="10.28" y2="61.1" gradientTransform="translate(131.33) rotate(-180) scale(1 -1)" xlink:href="#_711"/>
    <linearGradient id="_711-4" data-name="  711" x1="10.15" y1="58.43" x2="10.15" y2="37.86" gradientTransform="translate(131.33) rotate(-180) scale(1 -1)" xlink:href="#_711"/>
    <linearGradient id="_245" data-name="  245" x1="10.77" y1="58.29" x2="10.77" y2="37.9" gradientTransform="translate(131.33) rotate(-180) scale(1 -1)" gradientUnits="userSpaceOnUse">
      <stop offset="0" stop-color="#73ffeb"/>
      <stop offset=".98" stop-color="#66b1d8"/>
    </linearGradient>
    <radialGradient id="_94" data-name="  94" cx="10.49" cy="48.09" fx="10.49" fy="48.09" r="14.1" gradientTransform="translate(131.33) rotate(-180) scale(1 -1)" gradientUnits="userSpaceOnUse">
      <stop offset="0" stop-color="#736198"/>
      <stop offset="1" stop-color="#553461"/>
    </radialGradient>
    <linearGradient id="_85" data-name="  85" x1="10.88" y1="38.9" x2="10.88" y2="58.71" gradientTransform="translate(131.33) rotate(-180) scale(1 -1)" gradientUnits="userSpaceOnUse">
      <stop offset="0" stop-color="#fff"/>
      <stop offset="1" stop-color="#743f90"/>
    </linearGradient>
    <linearGradient id="_85-2" data-name="  85" x1="-2.73" y1="50.17" x2=".02" y2="45.4" xlink:href="#_85"/>
    <linearGradient id="_382" data-name="  382" x1="-4.97" y1="35.96" x2="25.49" y2="35.96" gradientTransform="translate(131.33) rotate(-180) scale(1 -1)" gradientUnits="userSpaceOnUse">
      <stop offset="0" stop-color="#000"/>
      <stop offset="1" stop-color="#ffb697"/>
    </linearGradient>
    <linearGradient id="_382-2" data-name="  382" x1="-3.95" y1="60.23" x2="25.95" y2="60.23" xlink:href="#_382"/>
    <linearGradient id="_711-5" data-name="  711" x1="10.28" y1="4.86" x2="10.28" y2="31.28" gradientTransform="translate(131.33) rotate(-180) scale(1 -1)" xlink:href="#_711"/>
    <linearGradient id="_711-6" data-name="  711" x1="10.15" y1="28.61" x2="10.15" y2="8.04" gradientTransform="translate(131.33) rotate(-180) scale(1 -1)" xlink:href="#_711"/>
    <linearGradient id="_216" data-name="  216" x1="10.77" y1="28.47" x2="10.77" y2="8.08" gradientTransform="translate(131.33) rotate(-180) scale(1 -1)" gradientUnits="userSpaceOnUse">
      <stop offset="0" stop-color="#312544"/>
      <stop offset="1" stop-color="#351945"/>
    </linearGradient>
    <radialGradient id="_94-2" data-name="  94" cy="18.27" fy="18.27" r="14.1" xlink:href="#_94"/>
    <linearGradient id="_85-3" data-name="  85" y1="9.08" y2="28.89" xlink:href="#_85"/>
    <linearGradient id="_85-4" data-name="  85" x1="-2.73" y1="20.35" x2=".02" y2="15.58" xlink:href="#_85"/>
    <linearGradient id="_382-3" data-name="  382" y1="6.15" y2="6.15" xlink:href="#_382"/>
    <linearGradient id="_382-4" data-name="  382" x1="-3.95" y1="30.41" x2="25.95" y2="30.41" xlink:href="#_382"/>
    <linearGradient id="_711-7" data-name="  711" x1="638.02" y1="34.68" x2="638.02" y2="61.1" gradientTransform="translate(-571.61)" xlink:href="#_711"/>
    <linearGradient id="_711-8" data-name="  711" x1="637.89" y1="58.43" x2="637.89" y2="37.86" gradientTransform="translate(-571.61)" xlink:href="#_711"/>
    <linearGradient id="_245-2" data-name="  245" x1="638.52" y1="58.29" x2="638.52" y2="37.9" gradientTransform="translate(-571.61)" xlink:href="#_245"/>
    <radialGradient id="_94-3" data-name="  94" cx="638.24" fx="638.24" r="14.1" gradientTransform="translate(-571.61)" xlink:href="#_94"/>
    <linearGradient id="_85-5" data-name="  85" x1="638.63" y1="38.9" x2="638.63" y2="58.71" gradientTransform="translate(-571.61)" xlink:href="#_85"/>
    <linearGradient id="_85-6" data-name="  85" x1="625.02" y1="50.17" x2="627.77" y2="45.4" gradientTransform="translate(-571.61)" xlink:href="#_85"/>
    <linearGradient id="_382-5" data-name="  382" x1="622.78" x2="653.24" gradientTransform="translate(-571.61)" xlink:href="#_382"/>
    <linearGradient id="_382-6" data-name="  382" x1="623.8" y1="60.23" x2="653.7" y2="60.23" gradientTransform="translate(-571.61)" xlink:href="#_382"/>
    <linearGradient id="_711-9" data-name="  711" x1="638.02" y1="4.86" x2="638.02" y2="31.28" gradientTransform="translate(-571.61)" xlink:href="#_711"/>
    <linearGradient id="_711-10" data-name="  711" x1="637.89" y1="28.61" x2="637.89" y2="8.04" gradientTransform="translate(-571.61)" xlink:href="#_711"/>
    <linearGradient id="_245-3" data-name="  245" x1="638.52" y1="28.47" x2="638.52" y2="8.08" gradientTransform="translate(-571.61)" xlink:href="#_245"/>
    <radialGradient id="_94-4" data-name="  94" cx="638.24" cy="18.27" fx="638.24" fy="18.27" r="14.1" gradientTransform="translate(-571.61)" xlink:href="#_94"/>
    <linearGradient id="_85-7" data-name="  85" x1="638.63" y1="9.08" x2="638.63" y2="28.89" gradientTransform="translate(-571.61)" xlink:href="#_85"/>
    <linearGradient id="_85-8" data-name="  85" x1="625.02" y1="20.35" x2="627.77" y2="15.58" gradientTransform="translate(-571.61)" xlink:href="#_85"/>
    <linearGradient id="_382-7" data-name="  382" x1="622.78" y1="6.15" x2="653.24" y2="6.15" gradientTransform="translate(-571.61)" xlink:href="#_382"/>
    <linearGradient id="_382-8" data-name="  382" x1="623.8" y1="30.41" x2="653.7" y2="30.41" gradientTransform="translate(-571.61)" xlink:href="#_382"/>
    <linearGradient id="_1428" data-name="  1428" x1="92.37" y1="88.27" x2="92.37" y2="92.14" gradientUnits="userSpaceOnUse">
      <stop offset="0" stop-color="#e5d9e3"/>
      <stop offset="1" stop-color="#c5b2c7"/>
    </linearGradient>
    <linearGradient id="_353" data-name="  353" x1="15.04" y1="131.48" x2="15.04" y2="95.85" gradientUnits="userSpaceOnUse">
      <stop offset="0" stop-color="#66518a"/>
      <stop offset="1" stop-color="#4a2853"/>
    </linearGradient>
    <linearGradient id="_353-2" data-name="  353" x1="167.32" x2="167.32" y2="97.55" xlink:href="#_353"/>
    <linearGradient id="_773-2" data-name="  773" x1=".73" y1="97.74" x2="184.01" y2="97.74" xlink:href="#_773"/>
    <linearGradient id="_773-3" data-name="  773" x1="92.1" y1="62.54" x2="92.1" y2="88.32" xlink:href="#_773"/>
    <linearGradient id="_711-11" data-name="  711" x1="-494.71" y1="133.99" x2="-488.86" y2="133.99" gradientTransform="translate(616.48 -62.42) rotate(-.23) scale(1.03 .97) skewX(16.42)" xlink:href="#_711"/>
    <linearGradient id="_711-12" data-name="  711" x1="-494.9" y1="137.44" x2="-489.05" y2="137.44" gradientTransform="translate(616.48 -62.42) rotate(-.23) scale(1.03 .97) skewX(16.42)" xlink:href="#_711"/>
    <linearGradient id="_711-13" data-name="  711" x1="-495.09" y1="140.88" x2="-489.25" y2="140.88" gradientTransform="translate(616.48 -62.42) rotate(-.23) scale(1.03 .97) skewX(16.42)" xlink:href="#_711"/>
    <linearGradient id="_711-14" data-name="  711" x1="-495.28" y1="144.33" x2="-489.44" y2="144.33" gradientTransform="translate(616.48 -62.42) rotate(-.23) scale(1.03 .97) skewX(16.42)" xlink:href="#_711"/>
    <linearGradient id="_711-15" data-name="  711" x1="-495.48" y1="147.77" x2="-489.63" y2="147.77" gradientTransform="translate(616.48 -62.42) rotate(-.23) scale(1.03 .97) skewX(16.42)" xlink:href="#_711"/>
    <linearGradient id="_711-16" data-name="  711" x1="-1209.24" y1="130.97" x2="-1203.39" y2="130.97" gradientTransform="translate(-1172.02 -62.42) rotate(-179.77) scale(1.03 -.97) skewX(16.42)" xlink:href="#_711"/>
    <linearGradient id="_711-17" data-name="  711" x1="-1209.43" y1="134.42" x2="-1203.59" y2="134.42" gradientTransform="translate(-1172.02 -62.42) rotate(-179.77) scale(1.03 -.97) skewX(16.42)" xlink:href="#_711"/>
    <linearGradient id="_711-18" data-name="  711" x1="-1209.62" y1="137.86" x2="-1203.78" y2="137.86" gradientTransform="translate(-1172.02 -62.42) rotate(-179.77) scale(1.03 -.97) skewX(16.42)" xlink:href="#_711"/>
    <linearGradient id="_711-19" data-name="  711" x1="-1209.81" y1="141.3" x2="-1203.97" y2="141.3" gradientTransform="translate(-1172.02 -62.42) rotate(-179.77) scale(1.03 -.97) skewX(16.42)" xlink:href="#_711"/>
    <linearGradient id="_711-20" data-name="  711" x1="-1210.01" y1="144.75" x2="-1204.16" y2="144.75" gradientTransform="translate(-1172.02 -62.42) rotate(-179.77) scale(1.03 -.97) skewX(16.42)" xlink:href="#_711"/>
    <linearGradient id="_222" data-name="  222" x1="91.31" y1="65.38" x2="91.31" y2="88.43" gradientUnits="userSpaceOnUse">
      <stop offset="0" stop-color="#e5d9e3"/>
      <stop offset="1" stop-color="#a78eac"/>
    </linearGradient>
    <linearGradient id="_711-21" data-name="  711" x1="63.49" y1="77.63" x2="118.17" y2="77.63" xlink:href="#_711"/>
    <linearGradient id="_216-2" data-name="  216" x1="66.04" y1="79.76" x2="113.87" y2="79.76" gradientTransform="matrix(1,0,0,1,0,0)" xlink:href="#_216"/>
    <radialGradient id="_94-5" data-name="  94" cx="90.83" cy="69.04" fx="90.83" fy="69.04" r="19.39" gradientTransform="matrix(1,0,0,1,0,0)" xlink:href="#_94"/>
    <linearGradient id="_199-2" data-name="  199" x1="-1092.97" y1="88.62" x2="-1063.22" y2="88.62" gradientTransform="translate(-1009.55) rotate(-180) scale(1 -1)" xlink:href="#_199"/>
    <linearGradient id="_267" data-name="  267" x1="-1078.58" y1="89.14" x2="-1078.58" y2="83.9" gradientTransform="translate(-1009.55) rotate(-180) scale(1 -1)" gradientUnits="userSpaceOnUse">
      <stop offset="0" stop-color="#3136a6"/>
      <stop offset="1" stop-color="#4e56a1"/>
    </linearGradient>
    <linearGradient id="_1433" data-name="  1433" x1="-1094.18" y1="88.47" x2="-1079.48" y2="88.47" gradientTransform="translate(-1009.55) rotate(-180) scale(1 -1)" gradientUnits="userSpaceOnUse">
      <stop offset="0" stop-color="#29275f"/>
      <stop offset="1" stop-color="#281577"/>
    </linearGradient>
    <linearGradient id="_1433-2" data-name="  1433" x1="-1093.86" y1="90.73" x2="-1079.11" y2="90.73" xlink:href="#_1433"/>
    <linearGradient id="_1433-3" data-name="  1433" x1="54.95" y1="87.73" x2="53.82" y2="87.73" gradientTransform="matrix(1,0,0,1,0,0)" xlink:href="#_1433"/>
    <linearGradient id="_216-3" data-name="  216" x1="38.3" y1="82.52" x2="44.11" y2="82.52" gradientTransform="matrix(1,0,0,1,0,0)" xlink:href="#_216"/>
    <linearGradient id="_216-4" data-name="  216" x1="1295.19" y1="-894.89" x2="1301" y2="-894.89" gradientTransform="translate(-1502.39 -202.4) rotate(45)" xlink:href="#_216"/>
    <linearGradient id="_302" data-name="  302" x1="-2435.56" y1="323.62" x2="-2435.56" y2="320.85" gradientTransform="translate(2784.86 -349.77) rotate(-2.83) scale(1.12 .89) skewX(10.43)" gradientUnits="userSpaceOnUse">
      <stop offset="0" stop-color="#080b31"/>
      <stop offset=".97" stop-color="#504861"/>
    </linearGradient>
    <linearGradient id="_305" data-name="  305" x1="-2435.17" y1="323.39" x2="-2435.17" y2="321.08" gradientTransform="translate(2784.86 -349.77) rotate(-2.83) scale(1.12 .89) skewX(10.43)" gradientUnits="userSpaceOnUse">
      <stop offset=".01" stop-color="#65617f"/>
      <stop offset=".97" stop-color="#b79b9d"/>
    </linearGradient>
    <linearGradient id="_302-2" data-name="  302" x1="-2439.54" y1="323.37" x2="-2439.54" y2="320.6" xlink:href="#_302"/>
    <linearGradient id="_305-2" data-name="  305" x1="-2439.15" y1="323.14" x2="-2439.15" y2="320.83" xlink:href="#_305"/>
    <linearGradient id="_302-3" data-name="  302" x1="-2443.53" y1="323.12" x2="-2443.53" y2="320.35" xlink:href="#_302"/>
    <linearGradient id="_305-3" data-name="  305" x1="-2443.13" y1="322.89" x2="-2443.13" y2="320.58" xlink:href="#_305"/>
    <linearGradient id="_302-4" data-name="  302" x1="-2447.51" y1="322.87" x2="-2447.51" y2="320.1" xlink:href="#_302"/>
    <linearGradient id="_305-4" data-name="  305" x1="-2447.12" y1="322.64" x2="-2447.12" y2="320.33" xlink:href="#_305"/>
    <linearGradient id="_302-5" data-name="  302" x1="-2451.5" y1="322.62" x2="-2451.5" y2="319.85" xlink:href="#_302"/>
    <linearGradient id="_305-5" data-name="  305" x1="-2451.1" y1="322.39" x2="-2451.1" y2="320.08" xlink:href="#_305"/>
    <linearGradient id="_302-6" data-name="  302" x1="-2435.55" y1="328.27" x2="-2435.55" y2="325.51" xlink:href="#_302"/>
    <linearGradient id="_305-6" data-name="  305" x1="-2435.16" y1="328.04" x2="-2435.16" y2="325.74" xlink:href="#_305"/>
    <linearGradient id="_302-7" data-name="  302" x1="-2439.54" y1="328.02" x2="-2439.54" y2="325.26" xlink:href="#_302"/>
    <linearGradient id="_305-7" data-name="  305" x1="-2439.14" y1="327.79" x2="-2439.14" y2="325.49" xlink:href="#_305"/>
    <linearGradient id="_302-8" data-name="  302" x1="-2443.52" y1="327.77" x2="-2443.52" y2="325.01" xlink:href="#_302"/>
    <linearGradient id="_305-8" data-name="  305" x1="-2443.13" y1="327.54" x2="-2443.13" y2="325.24" xlink:href="#_305"/>
    <linearGradient id="_302-9" data-name="  302" x1="-2447.51" y1="327.52" x2="-2447.51" y2="324.76" xlink:href="#_302"/>
    <linearGradient id="_305-9" data-name="  305" x1="-2447.11" y1="327.29" x2="-2447.11" y2="324.99" xlink:href="#_305"/>
    <linearGradient id="_302-10" data-name="  302" x1="-2451.49" y1="327.27" x2="-2451.49" y2="324.51" xlink:href="#_302"/>
    <linearGradient id="_305-10" data-name="  305" x1="-2451.1" y1="327.04" x2="-2451.1" y2="324.74" xlink:href="#_305"/>
    <linearGradient id="_302-11" data-name="  302" x1="-2435.91" y1="333.55" x2="-2435.91" y2="330.79" xlink:href="#_302"/>
    <linearGradient id="_305-11" data-name="  305" x1="-2435.52" y1="333.33" x2="-2435.52" y2="331.02" xlink:href="#_305"/>
    <linearGradient id="_302-12" data-name="  302" x1="-2439.9" y1="333.3" x2="-2439.9" y2="330.54" xlink:href="#_302"/>
    <linearGradient id="_305-12" data-name="  305" x1="-2439.5" y1="333.08" x2="-2439.5" y2="330.77" xlink:href="#_305"/>
    <linearGradient id="_302-13" data-name="  302" x1="-2443.88" y1="333.06" x2="-2443.88" y2="330.29" xlink:href="#_302"/>
    <linearGradient id="_305-13" data-name="  305" x1="-2443.49" y1="332.83" x2="-2443.49" y2="330.52" xlink:href="#_305"/>
    <linearGradient id="_302-14" data-name="  302" x1="-2447.87" y1="332.81" x2="-2447.87" y2="330.04" xlink:href="#_302"/>
    <linearGradient id="_305-14" data-name="  305" x1="-2447.47" y1="332.58" x2="-2447.47" y2="330.27" xlink:href="#_305"/>
    <linearGradient id="_302-15" data-name="  302" x1="-2451.85" y1="332.56" x2="-2451.85" y2="329.79" xlink:href="#_302"/>
    <linearGradient id="_305-15" data-name="  305" x1="-2451.46" y1="332.33" x2="-2451.46" y2="330.02" xlink:href="#_305"/>
    <linearGradient id="_245-4" data-name="  245" x1="-3211.21" y1="75.79" x2="-3211.21" y2="69.67" gradientTransform="translate(-3145.12 2.67) rotate(-180) scale(1 -1) skewX(11.93)" xlink:href="#_245"/>
    <linearGradient id="_302-16" data-name="  302" x1="-3214" y1="73.7" x2="-3210.2" y2="73.7" gradientTransform="translate(-3145.12 2.67) rotate(-180) scale(1 -1) skewX(11.93)" xlink:href="#_302"/>
    <linearGradient id="_711-22" data-name="  711" x1="91.97" y1="31.52" x2="97.79" y2="31.52" xlink:href="#_711"/>
    <linearGradient id="_1440" data-name="  1440" x1="92.86" y1="60.85" x2="92.86" y2="56.8" gradientUnits="userSpaceOnUse">
      <stop offset=".02" stop-color="#f75d48"/>
      <stop offset="1" stop-color="#ad193b"/>
    </linearGradient>
    <linearGradient id="_711-23" data-name="  711" x1="82.18" y1="61.79" x2="104.75" y2="61.79" xlink:href="#_711"/>
    <linearGradient id="_372" data-name="  372" x1="128.86" y1="83.76" x2="133.85" y2="83.76" gradientUnits="userSpaceOnUse">
      <stop offset="0" stop-color="#0c0f3a"/>
      <stop offset=".97" stop-color="#4a415e"/>
    </linearGradient>
    <linearGradient id="_367" data-name="  367" x1="129.16" y1="83.53" x2="133.54" y2="83.53" gradientUnits="userSpaceOnUse">
      <stop offset="0" stop-color="#33375b"/>
      <stop offset=".97" stop-color="#7e6c71"/>
    </linearGradient>
    <linearGradient id="_245-5" data-name="  245" x1="129.57" y1="83.13" x2="133.14" y2="83.13" gradientTransform="matrix(1,0,0,1,0,0)" xlink:href="#_245"/>
    <linearGradient id="_372-2" data-name="  372" x1="129.36" y1="82.45" x2="133.35" y2="82.45" xlink:href="#_372"/>
    <linearGradient id="_372-3" data-name="  372" x1="130.02" y1="82.45" x2="132.69" y2="82.45" xlink:href="#_372"/>
    <linearGradient id="_372-4" data-name="  372" x1="131.3" y1="83.12" x2="131.42" y2="83.12" xlink:href="#_372"/>
    <linearGradient id="_372-5" data-name="  372" x1="135.81" x2="140.79" xlink:href="#_372"/>
    <linearGradient id="_367-2" data-name="  367" x1="136.11" x2="140.49" xlink:href="#_367"/>
    <linearGradient id="_216-5" data-name="  216" x1="136.52" y1="83.13" x2="140.08" y2="83.13" gradientTransform="matrix(1,0,0,1,0,0)" xlink:href="#_216"/>
    <linearGradient id="_372-6" data-name="  372" x1="136.31" y1="82.45" x2="140.29" y2="82.45" xlink:href="#_372"/>
    <linearGradient id="_372-7" data-name="  372" x1="136.97" y1="82.45" x2="139.63" y2="82.45" xlink:href="#_372"/>
    <linearGradient id="_372-8" data-name="  372" x1="138.24" y1="83.12" x2="138.36" y2="83.12" xlink:href="#_372"/>
    <linearGradient id="_372-9" data-name="  372" x1="142.75" x2="147.74" xlink:href="#_372"/>
    <linearGradient id="_367-3" data-name="  367" x1="143.06" x2="147.44" xlink:href="#_367"/>
    <radialGradient id="_596" data-name="  596" cx="145.25" cy="583.37" fx="145.25" fy="583.37" r="1.76" gradientTransform="translate(0 -382.29) scale(1 .8)" gradientUnits="userSpaceOnUse">
      <stop offset="0" stop-color="#ffc48c"/>
      <stop offset="1" stop-color="#ffeab8"/>
    </radialGradient>
    <linearGradient id="_372-10" data-name="  372" x1="143.25" y1="82.45" x2="147.24" y2="82.45" xlink:href="#_372"/>
    <linearGradient id="_372-11" data-name="  372" x1="143.91" y1="82.45" x2="146.58" y2="82.45" xlink:href="#_372"/>
    <linearGradient id="_372-12" data-name="  372" x1="145.19" y1="83.12" x2="145.31" y2="83.12" xlink:href="#_372"/>
    <linearGradient id="_372-13" data-name="  372" x1="38.71" y1="69.59" x2="43.7" y2="69.59" xlink:href="#_372"/>
    <linearGradient id="_367-4" data-name="  367" x1="39.01" y1="69.36" x2="43.4" y2="69.36" xlink:href="#_367"/>
    <linearGradient id="_245-6" data-name="  245" x1="39.42" y1="68.96" x2="42.99" y2="68.96" gradientTransform="matrix(1,0,0,1,0,0)" xlink:href="#_245"/>
    <linearGradient id="_372-14" data-name="  372" x1="39.21" y1="68.28" x2="43.2" y2="68.28" xlink:href="#_372"/>
    <linearGradient id="_372-15" data-name="  372" x1="39.87" y1="68.28" x2="42.54" y2="68.28" xlink:href="#_372"/>
    <linearGradient id="_372-16" data-name="  372" x1="41.15" y1="68.94" x2="41.27" y2="68.94" xlink:href="#_372"/>
    <linearGradient id="_372-17" data-name="  372" x1="45.66" y1="69.59" x2="50.65" y2="69.59" xlink:href="#_372"/>
    <linearGradient id="_367-5" data-name="  367" x1="45.96" y1="69.36" x2="50.34" y2="69.36" xlink:href="#_367"/>
    <linearGradient id="_216-6" data-name="  216" x1="46.37" y1="68.96" x2="49.94" y2="68.96" gradientTransform="matrix(1,0,0,1,0,0)" xlink:href="#_216"/>
    <linearGradient id="_372-18" data-name="  372" x1="46.16" y1="68.28" x2="50.15" y2="68.28" xlink:href="#_372"/>
    <linearGradient id="_372-19" data-name="  372" x1="46.82" y1="68.28" x2="49.49" y2="68.28" xlink:href="#_372"/>
    <linearGradient id="_372-20" data-name="  372" x1="48.1" y1="68.94" x2="48.22" y2="68.94" xlink:href="#_372"/>
    <linearGradient id="_372-21" data-name="  372" x1="52.6" y1="69.59" x2="57.59" y2="69.59" xlink:href="#_372"/>
    <linearGradient id="_367-6" data-name="  367" x1="52.91" y1="69.36" x2="57.29" y2="69.36" xlink:href="#_367"/>
    <radialGradient id="_596-2" data-name="  596" cx="55.1" cy="565.61" fx="55.1" fy="565.61" r="1.76" xlink:href="#_596"/>
    <linearGradient id="_372-22" data-name="  372" x1="53.11" y1="68.28" x2="57.09" y2="68.28" xlink:href="#_372"/>
    <linearGradient id="_372-23" data-name="  372" x1="53.77" y1="68.28" x2="56.43" y2="68.28" xlink:href="#_372"/>
    <linearGradient id="_372-24" data-name="  372" x1="55.04" y1="68.94" x2="55.16" y2="68.94" xlink:href="#_372"/>
    <linearGradient id="_177" data-name="  177" x1="85.2" y1="11.99" x2="114.63" y2="11.99" gradientUnits="userSpaceOnUse">
      <stop offset=".02" stop-color="#ffcec7"/>
      <stop offset="1" stop-color="#ffe9f5"/>
    </linearGradient>
    <linearGradient id="_216-7" data-name="  216" x1="99.01" y1="4.1" x2="99.6" y2="4.1" gradientTransform="matrix(1,0,0,1,0,0)" xlink:href="#_216"/>
    <linearGradient id="_216-8" data-name="  216" x1="100.4" y1="14.22" x2="100.99" y2="14.22" gradientTransform="matrix(1,0,0,1,0,0)" xlink:href="#_216"/>
    <linearGradient id="_216-9" data-name="  216" x1="123.15" y1="14.81" x2="123.74" y2="14.81" gradientTransform="matrix(1,0,0,1,0,0)" xlink:href="#_216"/>
    <linearGradient id="_360" data-name="  360" x1="46.09" y1="32.26" x2="46.09" y2="27.52" gradientUnits="userSpaceOnUse">
      <stop offset="0" stop-color="#f1cb3c"/>
      <stop offset="1" stop-color="#ffb934"/>
    </linearGradient>
    <linearGradient id="_360-2" data-name="  360" x1="-2217.02" y1="-1701.59" x2="-2217.02" y2="-1706.33" gradientTransform="translate(2357.35 1748.24)" xlink:href="#_360"/>
    <linearGradient id="_711-24" data-name="  711" x1="11.76" y1="131.48" x2="11.76" y2="100.47" xlink:href="#_711"/>
    <linearGradient id="_711-25" data-name="  711" x1="170.26" y1="131.48" x2="170.26" y2="103.35" xlink:href="#_711"/>
    <linearGradient id="_773-4" data-name="  773" x1="18.75" y1="123.32" x2="42.63" y2="123.32" xlink:href="#_773"/>
    <linearGradient id="_353-3" data-name="  353" x1="1369.77" y1="132.22" x2="1369.77" y2="114.43" gradientTransform="translate(-1325.02)" xlink:href="#_353"/>
    <linearGradient id="_353-4" data-name="  353" x1="18.75" y1="123.32" x2="42.43" y2="123.32" xlink:href="#_353"/>
    <linearGradient id="_773-5" data-name="  773" x1="30.33" y1="132.22" x2="30.33" y2="114.43" xlink:href="#_773"/>
    <linearGradient id="_245-7" data-name="  245" x1="30.36" y1="123.96" x2="30.36" y2="116.93" gradientTransform="matrix(1,0,0,1,0,0)" xlink:href="#_245"/>
    <linearGradient id="_216-10" data-name="  216" x1="21.28" y1="128.7" x2="24.46" y2="128.7" gradientTransform="matrix(1,0,0,1,0,0)" xlink:href="#_216"/>
    <linearGradient id="_216-11" data-name="  216" x1="25.91" y1="128.7" x2="29.09" y2="128.7" gradientTransform="matrix(1,0,0,1,0,0)" xlink:href="#_216"/>
    <linearGradient id="_216-12" data-name="  216" x1="30.54" y1="128.7" x2="33.72" y2="128.7" gradientTransform="matrix(1,0,0,1,0,0)" xlink:href="#_216"/>
    <linearGradient id="_216-13" data-name="  216" x1="35.16" y1="128.7" x2="38.34" y2="128.7" gradientTransform="matrix(1,0,0,1,0,0)" xlink:href="#_216"/>
    <linearGradient id="_199-3" data-name="  199" x1="13.11" y1="73.33" x2="18.56" y2="73.33" xlink:href="#_199"/>
    <linearGradient id="_115" data-name="  115" x1="-1317.96" y1="72.89" x2="-1317.96" y2="50.79" gradientTransform="translate(-1290.85) rotate(-180) scale(1 -1)" gradientUnits="userSpaceOnUse">
      <stop offset="0" stop-color="#e00047"/>
      <stop offset="1" stop-color="#ff3434"/>
    </linearGradient>
    <linearGradient id="_623" data-name="  623" x1="-1320.16" y1="72.59" x2="-1320.16" y2="66.04" gradientTransform="translate(-1290.85) rotate(-180) scale(1 -1)" gradientUnits="userSpaceOnUse">
      <stop offset="0" stop-color="#ffeab8"/>
      <stop offset="1" stop-color="#ffc7cb"/>
    </linearGradient>
    <linearGradient id="_115-2" data-name="  115" x1="-1316.83" y1="87.32" x2="-1299.24" y2="87.32" xlink:href="#_115"/>
    <linearGradient id="_115-3" data-name="  115" x1="-1308.54" y1="86.37" x2="-1304.78" y2="86.37" xlink:href="#_115"/>
    <radialGradient id="_1932" data-name="  1932" cx="29.62" cy="69.87" fx="29.62" fy="69.87" r="23.98" gradientTransform="translate(94 29.69) rotate(81.01)" gradientUnits="userSpaceOnUse">
      <stop offset="0" stop-color="#ff6300"/>
      <stop offset=".01" stop-color="#fb6100"/>
      <stop offset=".13" stop-color="#c14b00"/>
      <stop offset=".26" stop-color="#8e3700"/>
      <stop offset=".38" stop-color="#622600"/>
      <stop offset=".5" stop-color="#3e1800"/>
      <stop offset=".62" stop-color="#230d00"/>
      <stop offset=".75" stop-color="#0f0600"/>
      <stop offset=".87" stop-color="#030100"/>
      <stop offset="1" stop-color="#000"/>
    </radialGradient>
    <radialGradient id="_1932-2" data-name="  1932" cx="29.62" fx="29.62" r="16.01" gradientTransform="translate(94.01 29.71) rotate(81.02)" xlink:href="#_1932"/>
    <linearGradient id="_711-26" data-name="  711" x1="-1153.38" y1="134.43" x2="-1153.38" y2="109.7" gradientTransform="translate(-1026.1) rotate(-180) scale(1 -1)" xlink:href="#_711"/>
    <linearGradient id="_711-27" data-name="  711" x1="-1185.63" y1="109.68" x2="-1162.33" y2="109.68" gradientTransform="translate(-1026.1) rotate(-180) scale(1 -1)" xlink:href="#_711"/>
    <linearGradient id="_711-28" data-name="  711" x1="-1184.36" y1="134.66" x2="-1184.36" y2="73.63" gradientTransform="translate(-1026.1) rotate(-180) scale(1 -1)" xlink:href="#_711"/>
    <linearGradient id="_780" data-name="  780" x1="6334.17" y1="127.22" x2="6327.32" y2="63.89" gradientTransform="translate(6427.28 5.44) rotate(179.98) scale(.99 -1.01) skewX(-6.14)" gradientUnits="userSpaceOnUse">
      <stop offset="0" stop-color="#baadcf"/>
      <stop offset="1" stop-color="#d1cbde"/>
    </linearGradient>
    <linearGradient id="_780-2" data-name="  780" x1="6320.3" y1="135.77" x2="6317.43" y2="106.8" gradientTransform="translate(6439.67) rotate(-180) scale(1 -1) skewX(-5.66)" xlink:href="#_780"/>
    <linearGradient id="_232" data-name="  232" x1="440.86" y1="106.43" x2="479.47" y2="106.43" gradientTransform="translate(-320.54)" gradientUnits="userSpaceOnUse">
      <stop offset="0" stop-color="#575786"/>
      <stop offset="1" stop-color="#26328a"/>
    </linearGradient>
    <linearGradient id="_349" data-name="  349" x1="481.96" y1="106.45" x2="456.12" y2="106.45" gradientTransform="translate(-335.81)" gradientUnits="userSpaceOnUse">
      <stop offset=".02" stop-color="#5444a8"/>
      <stop offset="1" stop-color="#495abf"/>
    </linearGradient>
    <linearGradient id="_349-2" data-name="  349" x1="467.74" y1="86.02" x2="467.74" y2="74.13" gradientTransform="translate(-320.54)" xlink:href="#_349"/>
    <linearGradient id="_232-2" data-name="  232" x1="475.89" y1="79.5" x2="478.19" y2="79.5" xlink:href="#_232"/>
    <linearGradient id="_711-29" data-name="  711" x1="-1178.7" y1="134.42" x2="-1178.7" y2="107.67" gradientTransform="translate(-1026.1) rotate(-180) scale(1 -1)" xlink:href="#_711"/>
  </defs>
  <g class="cls-105">
    <g id="Layer_2" data-name="Layer 2">
      <g id="bunker">
        <g>
          <g>
            <path class="cls-177" d="M5.59,102.11c-.21,0-.47-.08-.75-.23-.75-.4-1.44-1.18-1.34-1.93.05-.34.28-.76,1.01-1.08-.65-.93-1.43-1.88-2.15-2.77-1.18-1.45-2.21-2.7-2.34-3.46-.08-.44.1-.87.5-1.22-.07-.09-.12-.19-.16-.3-.17-.49-.03-1.25,1.63-2.07.4-.2.78-.36,1.13-.49-.05-.87.37-1.9,1.41-2.55.5-.31,1.04-.4,1.53-.25.3-.49.81-.88,1.53-1.03,2.03-.42,3.18,1.19,3.44,1.59l4.96-.98.05.27-5.15,1.02-.05-.09c-.04-.08-1.09-1.97-3.19-1.54-.61.12-1.05.45-1.32.86.14.07.27.15.4.26.62.5.98,1.36.79,1.87-.1.26-.33.41-.65.4-.63-.02-1.08-.52-1.14-1.27-.03-.37.03-.75.2-1.11-.34-.09-.76-.07-1.25.23-.91.57-1.3,1.45-1.29,2.21.98-.33,1.69-.35,2.07-.06.21.16.29.41.23.69-.1.45-.53.85-1.05.98-.58.14-1.1-.17-1.36-.8-.06-.13-.1-.28-.12-.43-.3.12-.65.27-1.04.46-1.15.57-1.68,1.18-1.49,1.73.03.08.07.15.12.22.66-.44,1.6-.6,2.18-.36.34.14.54.41.57.77.03.33-.17.57-.55.65-.61.13-1.66-.14-2.23-.69-.24.21-.49.53-.41.96.13.69,1.17,1.97,2.29,3.33.74.91,1.54,1.88,2.2,2.84.2-.07.44-.14.7-.19l.06.27c-.22.05-.42.1-.6.16.44.65.8,1.28,1.05,1.88.21.53.21.89,0,1.09-.1.09-.23.13-.39.13ZM4.67,99.11c-.54.23-.85.53-.9.89-.09.61.55,1.3,1.2,1.64.37.19.7.25.82.13.12-.11.09-.39-.06-.78-.24-.6-.62-1.24-1.06-1.89ZM.93,91.47c.5.46,1.43.7,1.95.59.36-.08.34-.29.34-.36-.02-.25-.16-.44-.4-.54-.48-.21-1.3-.06-1.88.31ZM3.42,88.76c.02.15.06.29.12.42.21.5.6.74,1.04.64.47-.11.78-.47.85-.77.03-.12.03-.29-.13-.41-.13-.1-.59-.32-1.87.13ZM6.19,86.12c-.15.32-.21.66-.18.99.04.46.29,1,.87,1.02.2,0,.32-.07.38-.22.13-.36-.14-1.1-.7-1.56-.09-.08-.22-.16-.37-.23Z"/>
            <polygon class="cls-83" points="41.06 .54 34.92 3.56 40.48 63.45 142.77 63.36 147.74 3.45 142.21 0 41.06 .54"/>
            <polygon class="cls-56" points="41.06 .54 44.21 63.47 40.48 63.45 34.92 3.56 41.06 .54"/>
            <polygon class="cls-174" points="142.21 0 139.94 62.66 142.77 63.36 147.74 3.45 142.21 0"/>
            <polygon class="cls-79" points="156.64 104.3 23.77 102.73 24.09 96.25 156.31 97.55 156.64 104.3"/>
            <g>
              <polygon class="cls-124" points="137.57 34.68 104.54 34.68 104.54 61.1 135.99 61.1 137.57 34.68"/>
              <path class="cls-149" d="M109.6,57.88c5.48.71,17.33.56,21.1.49.75-.02,1.18-.03,1.18-.03,1.38-8.81,1.25-19.75,1.25-19.75-10.58-1.09-23-.64-23-.64-.1.35-.19.73-.27,1.13-1.25,6.34-.26,18.8-.26,18.8Z"/>
              <path class="cls-18" d="M109.4,58.16s13.52.23,18.46.09c.08,0,.17,0,.25,0,1.68-.05,2.76-.1,2.76-.1,0,0,.42-2.11.52-2.87,1.67-12.87-.29-16.48-.29-16.48-4.15-.67-13.72-.92-18.37-.88-1.6.01-3.47,0-3.47,0,0,0-.2,3.17-.2,10.25,0,5.86.34,10.01.34,10.01Z"/>
              <path class="cls-22" d="M112.72,37.91c11.53,4.56,18.65,17.36,18.65,17.36,1.67-11.79-.29-16.48-.29-16.48-3.24-.62-13.72-.92-18.37-.88Z"/>
              <path class="cls-24" d="M111.53,57.5c4.17.48,17.52.59,17.52.59,0,0-7.94-2.49-14.75-1.33-.71.12-2.78.73-2.78.73Z"/>
              <path class="cls-23" d="M131.09,39.94c-1.91,1.31-3.94-.96-3.94-.96,0,0,1.31-.17,2.5,0,1.18.17,1.45.96,1.45.96Z"/>
              <path class="cls-96" d="M105.74,35.67v-.05h30.66l-1.12,24.94h-30l.46-24.89ZM136.3,35.72h-30.46l-.46,24.75h29.81l1.11-24.75Z"/>
              <path class="cls-31" d="M109.4,58.16c9.48,1.14,22.48.19,22.48.19l-1.02-.2c-4.95,0-19.64-.3-19.84-.81-.2-.51-1.81-7.93-1.79-18.44l-.05.72c-.46,9.45.22,18.53.22,18.53Z"/>
              <polygon class="cls-42" points="132.11 45.68 133.05 44.39 132.71 50.95 132 50.62 132.11 45.68"/>
              <path class="cls-61" d="M136.3,35.72s-4.89.54-14.65.49c-9.76-.05-15.81-.49-15.81-.49h30.46Z"/>
              <path class="cls-67" d="M135.28,60.56l-29.9-.1s7.29-.39,14.69-.54,15.22.64,15.22.64Z"/>
            </g>
            <g>
              <polygon class="cls-91" points="137.57 4.86 104.54 4.86 104.54 31.28 135.99 31.28 137.57 4.86"/>
              <path class="cls-82" d="M109.6,28.06c5.48.71,17.33.56,21.1.49.75-.02,1.18-.03,1.18-.03,1.38-8.81,1.25-19.75,1.25-19.75-10.58-1.09-23-.64-23-.64-.1.35-.19.73-.27,1.13-1.25,6.34-.26,18.8-.26,18.8Z"/>
              <path class="cls-106" d="M109.4,28.34s13.52.23,18.46.09c.08,0,.17,0,.25,0,1.68-.05,2.76-.1,2.76-.1,0,0,.42-2.11.52-2.87,1.67-12.87-.29-16.48-.29-16.48-4.15-.67-13.72-.92-18.37-.88-1.6.01-3.47,0-3.47,0,0,0-.2,3.17-.2,10.25,0,5.86.34,10.01.34,10.01Z"/>
              <path class="cls-22" d="M112.72,8.09c11.53,4.56,18.65,17.36,18.65,17.36,1.67-11.79-.29-16.48-.29-16.48-3.24-.62-13.72-.92-18.37-.88Z"/>
              <path class="cls-24" d="M111.53,27.68c4.17.48,17.52.59,17.52.59,0,0-7.94-2.49-14.75-1.33-.71.12-2.78.73-2.78.73Z"/>
              <path class="cls-23" d="M131.09,10.12c-1.91,1.31-3.94-.96-3.94-.96,0,0,1.31-.17,2.5,0,1.18.17,1.45.96,1.45.96Z"/>
              <path class="cls-7" d="M105.74,5.85v-.05h30.66l-1.12,24.94h-30l.46-24.89ZM136.3,5.9h-30.46l-.46,24.75h29.81l1.11-24.75Z"/>
              <path class="cls-40" d="M109.4,28.34c9.48,1.14,22.48.19,22.48.19l-1.02-.2c-4.95,0-19.64-.3-19.84-.81-.2-.51-1.81-7.93-1.79-18.44l-.05.72c-.46,9.45.22,18.53.22,18.53Z"/>
              <polygon class="cls-34" points="132.11 15.86 133.05 14.57 132.71 21.13 132 20.8 132.11 15.86"/>
              <path class="cls-68" d="M136.3,5.9s-4.89.54-14.65.49c-9.76-.05-15.81-.49-15.81-.49h30.46Z"/>
              <path class="cls-65" d="M135.28,30.74l-29.9-.1s7.29-.39,14.69-.54,15.22.64,15.22.64Z"/>
            </g>
            <g>
              <polygon class="cls-17" points="49.9 34.68 82.92 34.68 82.92 61.1 51.47 61.1 49.9 34.68"/>
              <path class="cls-55" d="M77.86,57.88c-5.48.71-17.33.56-21.1.49-.75-.02-1.18-.03-1.18-.03-1.38-8.81-1.25-19.75-1.25-19.75,10.58-1.09,23-.64,23-.64.1.35.19.73.27,1.13,1.25,6.34.26,18.8.26,18.8Z"/>
              <path class="cls-121" d="M78.07,58.16s-13.52.23-18.46.09c-.08,0-.17,0-.25,0-1.68-.05-2.76-.1-2.76-.1,0,0-.42-2.11-.52-2.87-1.67-12.87.29-16.48.29-16.48,4.15-.67,13.72-.92,18.37-.88,1.6.01,3.47,0,3.47,0,0,0,.2,3.17.2,10.25,0,5.86-.34,10.01-.34,10.01Z"/>
              <path class="cls-22" d="M74.74,37.91c-11.53,4.56-18.65,17.36-18.65,17.36-1.67-11.79.29-16.48.29-16.48,3.24-.62,13.72-.92,18.37-.88Z"/>
              <path class="cls-24" d="M75.94,57.5c-4.17.48-17.52.59-17.52.59,0,0,7.94-2.49,14.75-1.33.71.12,2.78.73,2.78.73Z"/>
              <path class="cls-23" d="M56.37,39.94c1.91,1.31,3.94-.96,3.94-.96,0,0-1.31-.17-2.5,0s-1.45.96-1.45.96Z"/>
              <path class="cls-184" d="M82.18,60.56h-30l-1.12-24.94h30.66v.05s.46,24.89.46,24.89ZM52.28,60.46h29.81l-.46-24.75h-30.46l1.11,24.75Z"/>
              <path class="cls-41" d="M78.07,58.16c-9.48,1.14-22.48.19-22.48.19l1.02-.2c4.95,0,19.64-.3,19.84-.81.2-.51,1.81-7.93,1.79-18.44l.05.72c.46,9.45-.22,18.53-.22,18.53Z"/>
              <polygon class="cls-36" points="55.35 45.68 54.41 44.39 54.76 50.95 55.46 50.62 55.35 45.68"/>
              <path class="cls-69" d="M51.16,35.72s4.89.54,14.65.49c9.76-.05,15.81-.49,15.81-.49h-30.46Z"/>
              <path class="cls-66" d="M52.18,60.56l29.9-.1s-7.29-.39-14.69-.54c-7.4-.15-15.22.64-15.22.64Z"/>
            </g>
            <g>
              <polygon class="cls-90" points="49.9 4.86 82.92 4.86 82.92 31.28 51.47 31.28 49.9 4.86"/>
              <path class="cls-75" d="M77.86,28.06c-5.48.71-17.33.56-21.1.49-.75-.02-1.18-.03-1.18-.03-1.38-8.81-1.25-19.75-1.25-19.75,10.58-1.09,23-.64,23-.64.1.35.19.73.27,1.13,1.25,6.34.26,18.8.26,18.8Z"/>
              <path class="cls-132" d="M78.07,28.34s-13.52.23-18.46.09c-.08,0-.17,0-.25,0-1.68-.05-2.76-.1-2.76-.1,0,0-.42-2.11-.52-2.87-1.67-12.87.29-16.48.29-16.48,4.15-.67,13.72-.92,18.37-.88,1.6.01,3.47,0,3.47,0,0,0,.2,3.17.2,10.25,0,5.86-.34,10.01-.34,10.01Z"/>
              <path class="cls-22" d="M74.74,8.09c-11.53,4.56-18.65,17.36-18.65,17.36-1.67-11.79.29-16.48.29-16.48,3.24-.62,13.72-.92,18.37-.88Z"/>
              <path class="cls-24" d="M75.94,27.68c-4.17.48-17.52.59-17.52.59,0,0,7.94-2.49,14.75-1.33.71.12,2.78.73,2.78.73Z"/>
              <path class="cls-23" d="M56.37,10.12c1.91,1.31,3.94-.96,3.94-.96,0,0-1.31-.17-2.5,0s-1.45.96-1.45.96Z"/>
              <path class="cls-19" d="M82.18,30.74h-30l-1.12-24.94h30.66v.05s.46,24.89.46,24.89ZM52.28,30.64h29.81l-.46-24.75h-30.46l1.11,24.75Z"/>
              <path class="cls-30" d="M78.07,28.34c-9.48,1.14-22.48.19-22.48.19l1.02-.2c4.95,0,19.64-.3,19.84-.81.2-.51,1.81-7.93,1.79-18.44l.05.72c.46,9.45-.22,18.53-.22,18.53Z"/>
              <polygon class="cls-29" points="55.35 15.86 54.41 14.57 54.76 21.13 55.46 20.8 55.35 15.86"/>
              <path class="cls-64" d="M51.16,5.9s4.89.54,14.65.49c9.76-.05,15.81-.49,15.81-.49h-30.46Z"/>
              <path class="cls-60" d="M52.18,30.74l29.9-.1s-7.29-.39-14.69-.54c-7.4-.15-15.22.64-15.22.64Z"/>
            </g>
            <path class="cls-35" d="M26.73,90.16c-.43-.16-1.09-.08-1.61.19h.58c.34-.09.7-.1.95,0,0,0,0,0,0,0h.37c-.07-.08-.17-.14-.28-.19Z"/>
            <polygon class="cls-77" points="20.36 88.27 .73 91.97 184.01 92.14 163.83 88.32 20.36 88.27"/>
            <polygon class="cls-147" points="5.99 100.89 22.58 131.48 24.09 96.25 6.3 95.85 5.99 100.89"/>
            <polygon class="cls-58" points="157.76 131.48 178.33 103.51 176.88 97.68 156.31 97.55 157.76 131.48"/>
            <polygon class="cls-145" points=".73 91.97 .73 93.2 .73 96.56 .93 100.47 5.99 100.89 6.35 96.61 176.86 98.12 178.33 103.51 182.76 103.35 183.72 98.18 184.01 92.14 .73 91.97"/>
            <polygon class="cls-175" points="20.36 88.27 27.48 63.55 155.07 62.54 163.83 88.32 20.36 88.27"/>
            <polygon class="cls-35" points="37.54 67.14 60.24 67.14 55.86 86.4 32.06 86.52 37.54 67.14"/>
            <polygon class="cls-35" points="144.91 67.14 122.21 67.14 126.58 86.4 150.39 86.52 144.91 67.14"/>
            <polygon class="cls-35" points="32.06 86.52 32.56 86.58 38 67.47 60.17 67.45 60.24 67.14 37.54 67.14 32.06 86.52"/>
            <polygon class="cls-35" points="150.28 86.52 149.78 86.58 144.34 67.47 122.17 67.45 122.1 67.14 144.8 67.14 150.28 86.52"/>
            <g>
              <polygon class="cls-126" points="147.68 68.53 148.17 70.45 154.07 70.41 153.57 68.45 147.68 68.53"/>
              <polygon class="cls-167" points="147.68 68.53 147.25 68.99 147.72 70.82 153.49 70.79 154.07 70.41 148.17 70.45 147.68 68.53"/>
              <polygon class="cls-116" points="148.54 71.87 149.03 73.79 154.93 73.75 154.43 71.79 148.54 71.87"/>
              <polygon class="cls-167" points="148.54 71.87 148.11 72.32 148.58 74.16 154.36 74.13 154.93 73.75 149.03 73.79 148.54 71.87"/>
              <polygon class="cls-78" points="149.4 75.21 149.89 77.12 155.79 77.09 155.29 75.13 149.4 75.21"/>
              <polygon class="cls-167" points="149.4 75.21 148.97 75.66 149.45 77.5 155.22 77.46 155.79 77.09 149.89 77.12 149.4 75.21"/>
              <polygon class="cls-130" points="150.26 78.55 150.75 80.46 156.66 80.43 156.15 78.47 150.26 78.55"/>
              <polygon class="cls-167" points="150.26 78.55 149.83 79 150.31 80.83 156.08 80.8 156.66 80.43 150.75 80.46 150.26 78.55"/>
              <polygon class="cls-28" points="151.12 81.89 151.61 83.8 157.52 83.77 157.01 81.81 151.12 81.89"/>
              <polygon class="cls-167" points="151.12 81.89 150.7 82.34 151.17 84.17 156.94 84.14 157.52 83.77 151.61 83.8 151.12 81.89"/>
            </g>
            <g>
              <polygon class="cls-115" points="34.11 68.53 33.62 70.45 27.72 70.41 28.22 68.45 34.11 68.53"/>
              <polygon class="cls-167" points="34.11 68.53 34.54 68.99 34.06 70.82 28.29 70.79 27.72 70.41 33.62 70.45 34.11 68.53"/>
              <polygon class="cls-178" points="33.25 71.87 32.76 73.79 26.85 73.75 27.36 71.79 33.25 71.87"/>
              <polygon class="cls-167" points="33.25 71.87 33.68 72.32 33.2 74.16 27.43 74.13 26.85 73.75 32.76 73.79 33.25 71.87"/>
              <polygon class="cls-157" points="32.39 75.21 31.9 77.12 25.99 77.09 26.5 75.13 32.39 75.21"/>
              <polygon class="cls-167" points="32.39 75.21 32.81 75.66 32.34 77.5 26.57 77.46 25.99 77.09 31.9 77.12 32.39 75.21"/>
              <polygon class="cls-173" points="31.53 78.55 31.03 80.46 25.13 80.43 25.64 78.47 31.53 78.55"/>
              <polygon class="cls-167" points="31.53 78.55 31.95 79 31.48 80.83 25.71 80.8 25.13 80.43 31.03 80.46 31.53 78.55"/>
              <polygon class="cls-138" points="30.67 81.89 30.17 83.8 24.27 83.77 24.78 81.81 30.67 81.89"/>
              <polygon class="cls-167" points="30.67 81.89 31.09 82.34 30.62 84.17 24.85 84.14 24.27 83.77 30.17 83.8 30.67 81.89"/>
            </g>
            <g>
              <polygon class="cls-137" points="64.65 87.37 63.49 66.9 118.17 66.9 116.01 88.36 117.08 88.43 120.6 65.38 62.02 65.38 64.25 87.87 64.65 87.37"/>
              <polygon class="cls-166" points="66.04 88.09 64.25 87.87 63.49 66.9 118.17 66.9 116.01 88.36 113.87 88.35 66.04 88.09"/>
              <polygon class="cls-164" points="113.87 88.35 66.04 88.11 70.54 71.18 112.14 71.18 113.87 88.35"/>
              <polygon class="cls-95" points="63.49 66.9 70.54 71.18 112.14 71.18 118.17 66.9 63.49 66.9"/>
              <polygon class="cls-2" points="111.02 73.24 71.15 73.18 71.4 72.27 110.75 72.33 111.02 73.24"/>
              <polygon class="cls-2" points="70.75 74.66 71 73.71 87.1 73.57 87.06 74.52 70.75 74.66"/>
              <polygon class="cls-2" points="74.48 75.99 70.38 75.99 70.65 75 74.7 75 74.48 75.99"/>
              <path class="cls-2" d="M109.17,77.4c-13.27-.02-38.5-.05-39.14,0l.22-1.02c.72-.06,37.12,0,38.67,0l.25,1.02Z"/>
              <polygon class="cls-2" points="88.05 78.83 69.61 78.83 69.9 77.77 88.08 77.77 88.05 78.83"/>
              <polygon class="cls-2" points="74.74 80.32 69.2 80.32 69.5 79.22 74.96 79.22 74.74 80.32"/>
              <polygon class="cls-2" points="83.79 81.87 68.78 81.87 69.09 80.72 83.89 80.72 83.79 81.87"/>
              <polygon class="cls-2" points="89.1 83.48 68.34 83.48 68.66 82.29 89.12 82.29 89.1 83.48"/>
              <polygon class="cls-2" points="90.1 85.5 67.87 85.16 68.22 83.91 90.11 84.25 90.1 85.5"/>
              <polygon class="cls-2" points="110.24 87.27 67.3 87.27 67.66 85.96 109.93 85.96 110.24 87.27"/>
            </g>
            <polygon class="cls-35" points="63.49 66.9 63.71 71.79 69.16 76.35 112.7 77.63 117.81 70.45 118.17 66.9 63.49 66.9"/>
            <g>
              <path class="cls-54" d="M54.01,89.99l14.09,1.8,14.65-2.15.66-2.37-17.94-.7-11.07-1.1s-.68,1.59-.73,2.18c-.05.54.33,2.34.33,2.34Z"/>
              <polygon class="cls-32" points="68.11 88.67 68.11 91.78 82.75 89.63 83.42 87.27 68.11 88.67"/>
              <path class="cls-45" d="M69.56,92.11l-16.56-1.48.42-6.72,16.62,5.24-.11.49-15.52-4.17c-.98,2.23-.4,4.53-.4,4.53l15.71,1.33-.16.78Z"/>
              <polygon class="cls-44" points="67.9 85.55 53.43 83.9 70.05 89.14 77.73 88.18 84.63 87.32 67.9 85.55"/>
              <polygon class="cls-46" points="84.63 87.32 84.63 88.02 69.94 89.63 70.05 89.14 84.63 87.32"/>
              <polygon class="cls-51" points="69.72 91.32 84.32 89.36 84.32 89.95 69.56 92.11 69.72 91.32"/>
              <path class="cls-49" d="M54.41,85.46l.53.1s-1.02,1.28-.53,4.44l-.4-.02s-.31-.75-.13-2.48c.18-1.73.53-2.05.53-2.05Z"/>
            </g>
            <path class="cls-146" d="M41.2,79.62c-1.61,0-2.91,1.3-2.91,2.91s1.3,2.91,2.91,2.91,2.91-1.3,2.91-2.91-1.3-2.91-2.91-2.91ZM41.16,80.03c1.01-.08,1.28.32,1.28.32l-.81,1.39h-.79l-.9-1.17s.37-.47,1.21-.54ZM39.71,84.51s-.56-.21-.87-1c-.37-.94-.07-1.32-.07-1.32l1.56.36.23.75-.85,1.2ZM40.67,82.52c0-.29.24-.53.53-.53s.53.24.53.53-.24.53-.53.53-.53-.24-.53-.53ZM43.19,83.99c-.54.86-1.03.83-1.03.83l-.62-1.48.47-.63h1.47s.16.56-.29,1.28Z"/>
            <path class="cls-140" d="M50.33,80.65c-1.14-1.14-2.97-1.14-4.11,0-1.14,1.14-1.14,2.98,0,4.11s2.98,1.13,4.11,0c1.14-1.14,1.14-2.98,0-4.11ZM50.01,80.91c.77.66.68,1.13.68,1.13l-1.55.41-.56-.56.19-1.46s.59-.08,1.24.47ZM45.82,83.05s-.25-.55.09-1.32c.4-.93.88-.98.88-.98l.85,1.36-.37.7-1.45.25ZM47.9,82.33c.21-.21.55-.21.76,0s.21.55,0,.76-.55.21-.76,0c-.21-.21-.21-.55,0-.76ZM48.64,85.15c-.99.22-1.32-.14-1.32-.14l.61-1.49.78-.11,1.05,1.03s-.3.52-1.12.71Z"/>
            <g>
              <path class="cls-33" d="M142.45,68.47c-.78.65-.13,2.21.32,2.8,0,0,1.44-.12,1.87-1.18.43-1.06-2.19-1.62-2.19-1.62Z"/>
              <path class="cls-161" d="M144.9,69.23c-.17-.61-.68-1.08-1.14-1.06l-.56-.07s-.08-.01-.11-.01h-.03s0,0,0,0c-.02,0-.03,0-.05,0-.51.03-.78.59-.59,1.27.19.67.76,1.2,1.28,1.17.07,0,.14-.02.21-.05l.54-.12s.05,0,.07-.02h0c.37-.11.54-.57.38-1.12Z"/>
              <path class="cls-162" d="M144.84,69.23c.16.56-.05,1.03-.46,1.05s-.88-.42-1.04-.98.05-1.03.46-1.05.88.42,1.04.98Z"/>
            </g>
            <g>
              <path class="cls-33" d="M137.93,68.47c-.78.65-.13,2.21.32,2.8,0,0,1.44-.12,1.87-1.18.43-1.06-2.19-1.62-2.19-1.62Z"/>
              <path class="cls-21" d="M140.38,69.23c-.17-.61-.68-1.08-1.14-1.06l-.56-.07s-.08-.01-.11-.01h-.03s0,0,0,0c-.02,0-.03,0-.05,0-.51.03-.78.59-.59,1.27.19.67.76,1.2,1.28,1.17.07,0,.14-.02.21-.05l.54-.12s.05,0,.07-.02h0s0,0,0,0c.37-.11.54-.57.38-1.12Z"/>
              <path class="cls-110" d="M140.33,69.23c.16.56-.05,1.03-.46,1.05s-.88-.42-1.04-.98c-.16-.56.05-1.03.46-1.05s.88.42,1.04.98Z"/>
            </g>
            <g>
              <path class="cls-33" d="M133.42,68.47c-.78.65-.13,2.21.32,2.8,0,0,1.44-.12,1.87-1.18.43-1.06-2.19-1.62-2.19-1.62Z"/>
              <path class="cls-104" d="M135.87,69.23c-.17-.61-.68-1.08-1.14-1.06l-.56-.07s-.08-.01-.11-.01h-.03s0,0,0,0c-.02,0-.03,0-.05,0-.51.03-.78.59-.59,1.27.19.67.76,1.2,1.28,1.17.07,0,.14-.02.21-.05l.54-.12s.05,0,.07-.02h0c.37-.11.54-.57.38-1.12Z"/>
              <path class="cls-187" d="M135.81,69.23c.16.56-.05,1.03-.46,1.05s-.88-.42-1.04-.98c-.16-.56.05-1.03.46-1.05s.88.42,1.04.98Z"/>
            </g>
            <g>
              <path class="cls-33" d="M128.9,68.47c-.78.65-.13,2.21.32,2.8,0,0,1.44-.12,1.87-1.18.43-1.06-2.19-1.62-2.19-1.62Z"/>
              <path class="cls-143" d="M131.35,69.23c-.17-.61-.68-1.08-1.14-1.06l-.56-.07s-.08-.01-.11-.01h-.03s0,0,0,0c-.02,0-.03,0-.05,0-.51.03-.78.59-.59,1.27.19.67.76,1.2,1.28,1.17.07,0,.14-.02.21-.05l.54-.12s.05,0,.07-.02h0c.37-.11.54-.57.38-1.12Z"/>
              <path class="cls-3" d="M131.3,69.23c.16.56-.05,1.03-.46,1.05s-.88-.42-1.04-.98c-.16-.56.05-1.03.46-1.05s.88.42,1.04.98Z"/>
            </g>
            <g>
              <path class="cls-33" d="M124.39,68.47c-.78.65-.13,2.21.32,2.8,0,0,1.44-.12,1.87-1.18.43-1.06-2.19-1.62-2.19-1.62Z"/>
              <path class="cls-11" d="M126.84,69.23c-.17-.61-.68-1.08-1.14-1.06l-.56-.07s-.08-.01-.11-.01h-.03s0,0,0,0c-.02,0-.03,0-.05,0-.51.03-.78.59-.59,1.27.19.67.76,1.2,1.28,1.17.07,0,.14-.02.21-.05l.54-.12s.05,0,.07-.02h0c.37-.11.54-.57.38-1.12Z"/>
              <path class="cls-163" d="M126.78,69.23c.16.56-.05,1.03-.46,1.05s-.88-.42-1.04-.98c-.16-.56.05-1.03.46-1.05s.88.42,1.04.98Z"/>
            </g>
            <g>
              <path class="cls-33" d="M143.62,72.58c-.78.65-.13,2.21.32,2.8,0,0,1.44-.12,1.87-1.18.43-1.06-2.19-1.62-2.19-1.62Z"/>
              <path class="cls-117" d="M146.07,73.34c-.17-.61-.68-1.08-1.14-1.06l-.56-.07s-.08-.01-.11-.01h-.03s0,0,0,0c-.02,0-.03,0-.05,0-.51.03-.78.59-.59,1.27.19.67.76,1.2,1.28,1.17.07,0,.14-.02.21-.05l.54-.12s.05,0,.07-.02h0c.37-.11.54-.57.38-1.12Z"/>
              <path class="cls-165" d="M146.02,73.34c.16.56-.05,1.03-.46,1.05s-.88-.42-1.04-.98c-.16-.56.05-1.03.46-1.05s.88.42,1.04.98Z"/>
            </g>
            <g>
              <path class="cls-33" d="M139.1,72.58c-.78.65-.13,2.21.32,2.8,0,0,1.44-.12,1.87-1.18.43-1.06-2.19-1.62-2.19-1.62Z"/>
              <path class="cls-151" d="M141.55,73.34c-.17-.61-.68-1.08-1.14-1.06l-.56-.07s-.08-.01-.11-.01h-.03s0,0,0,0c-.02,0-.03,0-.05,0-.51.03-.78.59-.59,1.27.19.67.76,1.2,1.28,1.17.07,0,.14-.02.21-.05l.54-.12s.05,0,.07-.02h0c.37-.11.54-.57.38-1.12Z"/>
              <path class="cls-10" d="M141.5,73.34c.16.56-.05,1.03-.46,1.05-.41.02-.88-.42-1.04-.98-.16-.56.05-1.03.46-1.05s.88.42,1.04.98Z"/>
            </g>
            <g>
              <path class="cls-33" d="M134.59,72.58c-.78.65-.13,2.21.32,2.8,0,0,1.44-.12,1.87-1.18.43-1.06-2.19-1.62-2.19-1.62Z"/>
              <path class="cls-155" d="M137.04,73.34c-.17-.61-.68-1.08-1.14-1.06l-.56-.07s-.08-.01-.11-.01h-.03s0,0,0,0c-.02,0-.03,0-.05,0-.51.03-.78.59-.59,1.27.19.67.76,1.2,1.28,1.17.07,0,.14-.02.21-.05l.54-.12s.05,0,.07-.02h0c.37-.11.54-.57.38-1.12Z"/>
              <path class="cls-186" d="M136.99,73.34c.16.56-.05,1.03-.46,1.05s-.88-.42-1.04-.98c-.16-.56.05-1.03.46-1.05s.88.42,1.04.98Z"/>
            </g>
            <g>
              <path class="cls-33" d="M130.07,72.58c-.78.65-.13,2.21.32,2.8,0,0,1.44-.12,1.87-1.18.43-1.06-2.19-1.62-2.19-1.62Z"/>
              <path class="cls-141" d="M132.52,73.34c-.17-.61-.68-1.08-1.14-1.06l-.56-.07s-.08-.01-.11-.01h-.03s0,0,0,0c-.02,0-.03,0-.05,0-.51.03-.78.59-.59,1.27.19.67.76,1.2,1.28,1.17.07,0,.14-.02.21-.05l.54-.12s.05,0,.07-.02h0c.37-.11.54-.57.38-1.12Z"/>
              <path class="cls-152" d="M132.47,73.34c.16.56-.05,1.03-.46,1.05s-.88-.42-1.04-.98c-.16-.56.05-1.03.46-1.05s.88.42,1.04.98Z"/>
            </g>
            <g>
              <path class="cls-33" d="M125.56,72.58c-.78.65-.13,2.21.32,2.8,0,0,1.44-.12,1.87-1.18.43-1.06-2.19-1.62-2.19-1.62Z"/>
              <path class="cls-8" d="M128.01,73.34c-.17-.61-.68-1.08-1.14-1.06l-.56-.07s-.08-.01-.11-.01h-.03s0,0,0,0c-.02,0-.03,0-.05,0-.51.03-.78.59-.59,1.27.19.67.76,1.2,1.28,1.17.07,0,.14-.02.21-.05l.54-.12s.05,0,.07-.02h0s0,0,0,0c.37-.11.54-.57.38-1.12Z"/>
              <path class="cls-139" d="M127.96,73.34c.16.56-.05,1.03-.46,1.05s-.88-.42-1.04-.98c-.16-.56.05-1.03.46-1.05s.88.42,1.04.98Z"/>
            </g>
            <g>
              <path class="cls-33" d="M144.53,77.26c-.78.65-.13,2.21.32,2.8,0,0,1.44-.12,1.87-1.18.43-1.06-2.19-1.62-2.19-1.62Z"/>
              <path class="cls-14" d="M146.98,78.02c-.17-.61-.68-1.08-1.14-1.06l-.56-.07s-.08-.01-.11-.01h-.03s0,0,0,0c-.02,0-.03,0-.05,0-.51.03-.78.59-.59,1.27.19.67.76,1.2,1.28,1.17.07,0,.14-.02.21-.05l.54-.12s.05,0,.07-.02h0c.37-.11.54-.57.38-1.12Z"/>
              <path class="cls-183" d="M146.93,78.02c.16.56-.05,1.03-.46,1.05-.41.02-.88-.42-1.04-.98-.16-.56.05-1.03.46-1.05.41-.02.88.42,1.04.98Z"/>
            </g>
            <g>
              <path class="cls-33" d="M140.02,77.26c-.78.65-.13,2.21.32,2.8,0,0,1.44-.12,1.87-1.18.43-1.06-2.19-1.62-2.19-1.62Z"/>
              <path class="cls-158" d="M142.47,78.02c-.17-.61-.68-1.08-1.14-1.06l-.56-.07s-.08-.01-.11-.01h-.03s0,0,0,0c-.02,0-.03,0-.05,0-.51.03-.78.59-.59,1.27.19.67.76,1.2,1.28,1.17.07,0,.14-.02.21-.05l.54-.12s.05,0,.07-.02h0c.37-.11.54-.57.38-1.12Z"/>
              <path class="cls-99" d="M142.42,78.02c.16.56-.05,1.03-.46,1.05-.41.02-.88-.42-1.04-.98s.05-1.03.46-1.05c.41-.02.88.42,1.04.98Z"/>
            </g>
            <g>
              <path class="cls-33" d="M135.5,77.26c-.78.65-.13,2.21.32,2.8,0,0,1.44-.12,1.87-1.18.43-1.06-2.19-1.62-2.19-1.62Z"/>
              <path class="cls-171" d="M137.95,78.02c-.17-.61-.68-1.08-1.14-1.06l-.56-.07s-.08-.01-.11-.01h-.03s0,0,0,0c-.02,0-.03,0-.05,0-.51.03-.78.59-.59,1.27.19.67.76,1.2,1.28,1.17.07,0,.14-.02.21-.05l.54-.12s.05,0,.07-.02h0c.37-.11.54-.57.38-1.12Z"/>
              <path class="cls-20" d="M137.9,78.02c.16.56-.05,1.03-.46,1.05-.41.02-.88-.42-1.04-.98-.16-.56.05-1.03.46-1.05.41-.02.88.42,1.04.98Z"/>
            </g>
            <g>
              <path class="cls-33" d="M130.99,77.26c-.78.65-.13,2.21.32,2.8,0,0,1.44-.12,1.87-1.18s-2.19-1.62-2.19-1.62Z"/>
              <path class="cls-160" d="M133.44,78.02c-.17-.61-.68-1.08-1.14-1.06l-.56-.07s-.08-.01-.11-.01h-.03s0,0,0,0c-.02,0-.03,0-.05,0-.51.03-.78.59-.59,1.27.19.67.76,1.2,1.28,1.17.07,0,.14-.02.21-.05l.54-.12s.05,0,.07-.02h0c.37-.11.54-.57.38-1.12Z"/>
              <path class="cls-102" d="M133.39,78.02c.16.56-.05,1.03-.46,1.05-.41.02-.88-.42-1.04-.98-.16-.56.05-1.03.46-1.05.41-.02.88.42,1.04.98Z"/>
            </g>
            <g>
              <path class="cls-33" d="M126.47,77.26c-.78.65-.13,2.21.32,2.8,0,0,1.44-.12,1.87-1.18.43-1.06-2.19-1.62-2.19-1.62Z"/>
              <path class="cls-119" d="M128.92,78.02c-.17-.61-.68-1.08-1.14-1.06l-.56-.07s-.08-.01-.11-.01h-.03s0,0,0,0c-.02,0-.03,0-.05,0-.51.03-.78.59-.59,1.27.19.67.76,1.2,1.28,1.17.07,0,.14-.02.21-.05l.54-.12s.05,0,.07-.02h0c.37-.11.54-.57.38-1.12Z"/>
              <path class="cls-127" d="M128.87,78.02c.16.56-.05,1.03-.46,1.05s-.88-.42-1.04-.98c-.16-.56.05-1.03.46-1.05s.88.42,1.04.98Z"/>
            </g>
            <g>
              <polygon class="cls-179" points="52.65 72.43 51.36 78.56 39.87 78.56 41.16 72.43 52.65 72.43"/>
              <path class="cls-118" d="M40.11,77.66c2.05-2,4.09-3.03,6.04-3.07,3.36-.07,5.37,2.86,5.39,2.89l.12-.09s-2.01-2.94-5.37-2.94c-.04,0-.07,0-.11,0-2,.04-4.07,1.09-6.15,3.11l.08.08Z"/>
              <path class="cls-33" d="M40.53,78.56s.8-4.85,1.1-5.24h10.83s.19-.88.19-.88h-11.49s-1.29,6.12-1.29,6.12h.66Z"/>
              <polygon class="cls-86" points="45.61 78.56 49.28 74.38 44.61 78.56 45.61 78.56"/>
            </g>
            <polygon class="cls-129" points="92.22 63.04 91.97 63.04 91.97 52.75 97.42 47.84 97.54 21.19 92.2 16.83 92.2 16.77 91.97 0 92.22 0 92.45 16.71 97.79 21.07 97.79 21.13 97.67 47.95 92.22 52.86 92.22 63.04"/>
            <path class="cls-169" d="M87.1,60.85h11.52l-1.61-3.84s-4.49-.48-8.53,0l-1.39,3.84Z"/>
            <polygon class="cls-88" points="82.18 63.12 104.75 62.93 102.71 60.46 84.08 60.46 82.18 63.12"/>
            <g>
              <path class="cls-89" d="M133.79,83.43c.31.96-.74,1.95-2.44,1.95s-2.75-.98-2.44-1.95c.25-.77,1.32-1.28,2.44-1.28s2.19.52,2.44,1.28Z"/>
              <path class="cls-114" d="M133.51,83.28c.24.82-.7,1.64-2.15,1.64s-2.39-.81-2.15-1.64c.2-.67,1.15-1.13,2.15-1.13s1.96.46,2.15,1.13Z"/>
              <path class="cls-150" d="M133.05,83.05c-.09-.27-.27-.58-.57-.92-.28-.33-.66-.38-1.12-.38s-.83.05-1.12.38-.47.62-.55.88c-.04.07-.07.14-.09.22-.16.66.62,1.28,1.76,1.28s1.92-.62,1.76-1.28c-.02-.06-.04-.13-.07-.18Z"/>
              <g>
                <path class="cls-98" d="M133.35,83.28l-.1.03-.23-.44-.06-.11-.33-.61-.04-.08s-.03-.03-.07-.05c-.16-.11-.56-.34-1.1-.36-.02,0-.04,0-.06,0-.01,0-.03,0-.04,0-.56.01-.96.25-1.12.36-.03.02-.06.04-.07.05l-.05.09-.32.6h0s-.06.11-.06.11l-.24.44-.1-.03.66-1.23v-.02s.02,0,.02,0c0,0,0,0,.02-.02.1-.08.58-.42,1.28-.42h0s.02,0,.02,0c.71,0,1.18.34,1.28.42.01,0,.02.01.02.02h0s0,.01,0,.01v.02s.67,1.23.67,1.23Z"/>
                <path class="cls-59" d="M132.68,82.04h0s0-.01,0-.01c0,0,0,0-.02-.02h-.03s-.04,0-.1.02c-.2.03-.66.08-1.1.08-.02,0-.04,0-.06,0-.01,0-.03,0-.04,0-.48,0-.93-.06-1.12-.08-.06,0-.1-.01-.1-.01h-.03s-.02.01-.02.01h0s-.01.03-.01.03h0s.01.06.05.12c.11.22.45.7,1.23.73.02,0,.04,0,.06,0,.01,0,.03,0,.04,0,.71-.02,1.09-.53,1.22-.74.03-.05.05-.09.05-.09v-.02s0-.02,0-.02ZM131.41,82.81s-.03,0-.04,0c-.02,0-.04,0-.06,0-.78-.03-1.07-.52-1.15-.7.19.03.66.08,1.16.08.01,0,.03,0,.04,0,.02,0,.04,0,.06,0,.46,0,.93-.06,1.13-.08-.11.19-.47.68-1.13.7Z"/>
                <polygon class="cls-27" points="131.4 84.61 131.3 84.61 131.31 81.63 131.42 81.63 131.4 84.61"/>
              </g>
            </g>
            <g>
              <path class="cls-15" d="M140.74,83.43c.31.96-.74,1.95-2.44,1.95s-2.75-.98-2.44-1.95c.25-.77,1.32-1.28,2.44-1.28s2.19.52,2.44,1.28Z"/>
              <path class="cls-185" d="M140.45,83.28c.24.82-.7,1.64-2.15,1.64s-2.39-.81-2.15-1.64c.2-.67,1.15-1.13,2.15-1.13s1.96.46,2.15,1.13Z"/>
              <path class="cls-9" d="M139.99,83.05c-.09-.27-.27-.58-.57-.92-.28-.33-.66-.38-1.12-.38s-.83.05-1.12.38-.47.62-.55.88c-.04.07-.07.14-.09.22-.16.66.62,1.28,1.76,1.28s1.92-.62,1.76-1.28c-.02-.06-.04-.13-.07-.18Z"/>
              <g>
                <path class="cls-122" d="M140.29,83.28l-.1.03-.23-.44-.06-.11-.33-.61-.04-.08s-.03-.03-.07-.05c-.16-.11-.56-.34-1.1-.36-.02,0-.04,0-.06,0-.01,0-.03,0-.04,0-.56.01-.96.25-1.12.36-.03.02-.06.04-.07.05l-.05.09-.32.6h0s-.06.11-.06.11l-.24.44-.1-.03.66-1.23v-.02s.02,0,.02,0c0,0,0,0,.02-.02.1-.08.58-.42,1.28-.42h0s.02,0,.02,0c.71,0,1.18.34,1.28.42.01,0,.02.01.02.02h0s0,.01,0,.01v.02s.67,1.23.67,1.23Z"/>
                <path class="cls-97" d="M139.63,82.04h0s0-.01,0-.01c0,0,0,0-.02-.02h-.03s-.04,0-.1.02c-.2.03-.66.08-1.1.08-.02,0-.04,0-.06,0-.01,0-.03,0-.04,0-.48,0-.93-.06-1.12-.08-.06,0-.1-.01-.1-.01h-.03s-.02.01-.02.01h0s-.01.03-.01.03h0s.01.06.05.12c.11.22.45.7,1.23.73.02,0,.04,0,.06,0,.01,0,.03,0,.04,0,.71-.02,1.09-.53,1.22-.74.03-.05.05-.09.05-.09v-.02s0-.02,0-.02ZM138.36,82.81s-.03,0-.04,0c-.02,0-.04,0-.06,0-.78-.03-1.07-.52-1.15-.7.19.03.66.08,1.16.08.01,0,.03,0,.04,0,.02,0,.04,0,.06,0,.46,0,.93-.06,1.13-.08-.11.19-.47.68-1.13.7Z"/>
                <polygon class="cls-131" points="138.35 84.61 138.24 84.61 138.26 81.63 138.36 81.63 138.35 84.61"/>
              </g>
            </g>
            <g>
              <path class="cls-76" d="M147.69,83.43c.31.96-.74,1.95-2.44,1.95s-2.75-.98-2.44-1.95c.25-.77,1.32-1.28,2.44-1.28s2.19.52,2.44,1.28Z"/>
              <path class="cls-170" d="M147.4,83.28c.24.82-.7,1.64-2.15,1.64s-2.39-.81-2.15-1.64c.2-.67,1.15-1.13,2.15-1.13s1.96.46,2.15,1.13Z"/>
              <path class="cls-123" d="M146.94,83.05c-.09-.27-.27-.58-.57-.92-.28-.33-.66-.38-1.12-.38s-.83.05-1.12.38c-.3.32-.47.62-.55.88-.04.07-.07.14-.09.22-.16.66.62,1.28,1.76,1.28s1.92-.62,1.76-1.28c-.02-.06-.04-.13-.07-.18Z"/>
              <g>
                <path class="cls-5" d="M147.24,83.28l-.1.03-.23-.44-.06-.11-.33-.61-.04-.08s-.03-.03-.07-.05c-.16-.11-.56-.34-1.1-.36-.02,0-.04,0-.06,0-.01,0-.03,0-.04,0-.56.01-.96.25-1.12.36-.03.02-.06.04-.07.05l-.05.09-.32.6h0s-.06.11-.06.11l-.24.44-.1-.03.66-1.23v-.02s.02,0,.02,0c0,0,0,0,.02-.02.1-.08.58-.42,1.28-.42h0s.02,0,.02,0c.71,0,1.18.34,1.28.42.01,0,.02.01.02.02h0s0,.01,0,.01v.02s.67,1.23.67,1.23Z"/>
                <path class="cls-120" d="M146.57,82.04h0s0-.01,0-.01c0,0,0,0-.02-.02h-.03s-.04,0-.1.02c-.2.03-.66.08-1.1.08-.02,0-.04,0-.06,0-.01,0-.03,0-.04,0-.48,0-.93-.06-1.12-.08-.06,0-.1-.01-.1-.01h-.03s-.02.01-.02.01h0s-.01.03-.01.03h0s.01.06.05.12c.11.22.45.7,1.23.73.02,0,.04,0,.06,0,.01,0,.03,0,.04,0,.71-.02,1.09-.53,1.22-.74.03-.05.05-.09.05-.09v-.02s0-.02,0-.02ZM145.3,82.81s-.03,0-.04,0c-.02,0-.04,0-.06,0-.78-.03-1.07-.52-1.15-.7.19.03.66.08,1.16.08.01,0,.03,0,.04,0,.02,0,.04,0,.06,0,.46,0,.93-.06,1.13-.08-.11.19-.47.68-1.13.7Z"/>
                <polygon class="cls-176" points="145.29 84.61 145.19 84.61 145.21 81.63 145.31 81.63 145.29 84.61"/>
              </g>
            </g>
            <g>
              <path class="cls-156" d="M43.64,69.26c.31.96-.74,1.95-2.44,1.95s-2.75-.98-2.44-1.95c.25-.77,1.32-1.28,2.44-1.28s2.19.52,2.44,1.28Z"/>
              <path class="cls-100" d="M43.36,69.11c.24.82-.7,1.64-2.15,1.64s-2.39-.81-2.15-1.64c.2-.67,1.15-1.13,2.15-1.13s1.96.46,2.15,1.13Z"/>
              <path class="cls-6" d="M42.9,68.87c-.09-.27-.27-.58-.57-.92-.28-.33-.66-.38-1.12-.38s-.83.05-1.12.38c-.3.32-.47.62-.55.88-.04.07-.07.14-.09.22-.16.66.62,1.28,1.76,1.28s1.92-.62,1.76-1.28c-.02-.06-.04-.13-.07-.18Z"/>
              <g>
                <path class="cls-80" d="M43.2,69.11l-.1.03-.23-.44-.06-.11-.33-.61-.04-.08s-.03-.03-.07-.05c-.16-.11-.56-.34-1.1-.36-.02,0-.04,0-.06,0-.01,0-.03,0-.04,0-.56.01-.96.25-1.12.36-.03.02-.06.04-.07.05l-.05.09-.32.6h0s-.06.11-.06.11l-.24.44-.1-.03.66-1.23v-.02s.02,0,.02,0c0,0,0,0,.02-.02.1-.08.58-.42,1.28-.42h0s.02,0,.02,0c.71,0,1.18.34,1.28.42.01,0,.02.01.02.02h0s0,.01,0,.01v.02s.67,1.23.67,1.23Z"/>
                <path class="cls-107" d="M42.53,67.86h0s0-.01,0-.01c0,0,0,0-.02-.02h-.03s-.04,0-.1.02c-.2.03-.66.08-1.1.08-.02,0-.04,0-.06,0-.01,0-.03,0-.04,0-.48,0-.93-.06-1.12-.08-.06,0-.1-.01-.1-.01h-.03s-.02.01-.02.01h0s-.01.03-.01.03h0s.01.06.05.12c.11.22.45.7,1.23.73.02,0,.04,0,.06,0,.01,0,.03,0,.04,0,.71-.02,1.09-.53,1.22-.74.03-.05.05-.09.05-.09v-.02s0-.02,0-.02ZM41.26,68.64s-.03,0-.04,0c-.02,0-.04,0-.06,0-.78-.03-1.07-.52-1.15-.7.19.03.66.08,1.16.08.01,0,.03,0,.04,0,.02,0,.04,0,.06,0,.46,0,.93-.06,1.13-.08-.11.19-.47.68-1.13.7Z"/>
                <polygon class="cls-172" points="41.25 70.44 41.15 70.44 41.16 67.45 41.27 67.45 41.25 70.44"/>
              </g>
            </g>
            <g>
              <path class="cls-12" d="M50.59,69.26c.31.96-.74,1.95-2.44,1.95s-2.75-.98-2.44-1.95c.25-.77,1.32-1.28,2.44-1.28s2.19.52,2.44,1.28Z"/>
              <path class="cls-43" d="M50.31,69.11c.24.82-.7,1.64-2.15,1.64s-2.39-.81-2.15-1.64c.2-.67,1.15-1.13,2.15-1.13s1.96.46,2.15,1.13Z"/>
              <path class="cls-181" d="M49.85,68.87c-.09-.27-.27-.58-.57-.92-.28-.33-.66-.38-1.12-.38s-.83.05-1.12.38c-.3.32-.47.62-.55.88-.04.07-.07.14-.09.22-.16.66.62,1.28,1.76,1.28s1.92-.62,1.76-1.28c-.02-.06-.04-.13-.07-.18Z"/>
              <g>
                <path class="cls-144" d="M50.15,69.11l-.1.03-.23-.44-.06-.11-.33-.61-.04-.08s-.03-.03-.07-.05c-.16-.11-.56-.34-1.1-.36-.02,0-.04,0-.06,0-.01,0-.03,0-.04,0-.56.01-.96.25-1.12.36-.03.02-.06.04-.07.05l-.05.09-.32.6h0s-.06.11-.06.11l-.24.44-.1-.03.66-1.23v-.02s.02,0,.02,0c0,0,0,0,.02-.02.1-.08.58-.42,1.28-.42h0s.02,0,.02,0c.71,0,1.18.34,1.28.42.01,0,.02.01.02.02h0s0,.01,0,.01v.02s.67,1.23.67,1.23Z"/>
                <path class="cls-154" d="M49.48,67.86h0s0-.01,0-.01c0,0,0,0-.02-.02h-.03s-.04,0-.1.02c-.2.03-.66.08-1.1.08-.02,0-.04,0-.06,0-.01,0-.03,0-.04,0-.48,0-.93-.06-1.12-.08-.06,0-.1-.01-.1-.01h-.03s-.02.01-.02.01h0s-.01.03-.01.03h0s.01.06.05.12c.11.22.45.7,1.23.73.02,0,.04,0,.06,0,.01,0,.03,0,.04,0,.71-.02,1.09-.53,1.22-.74.03-.05.05-.09.05-.09v-.02s0-.02,0-.02ZM48.21,68.64s-.03,0-.04,0c-.02,0-.04,0-.06,0-.78-.03-1.07-.52-1.15-.7.19.03.66.08,1.16.08.01,0,.03,0,.04,0,.02,0,.04,0,.06,0,.46,0,.93-.06,1.13-.08-.11.19-.47.68-1.13.7Z"/>
                <polygon class="cls-111" points="48.2 70.44 48.1 70.44 48.11 67.45 48.22 67.45 48.2 70.44"/>
              </g>
            </g>
            <g>
              <path class="cls-180" d="M57.54,69.26c.31.96-.74,1.95-2.44,1.95s-2.75-.98-2.44-1.95c.25-.77,1.32-1.28,2.44-1.28s2.19.52,2.44,1.28Z"/>
              <path class="cls-128" d="M57.25,69.11c.24.82-.7,1.64-2.15,1.64s-2.39-.81-2.15-1.64c.2-.67,1.15-1.13,2.15-1.13s1.96.46,2.15,1.13Z"/>
              <path class="cls-4" d="M56.79,68.87c-.09-.27-.27-.58-.57-.92-.28-.33-.66-.38-1.12-.38s-.83.05-1.12.38c-.3.32-.47.62-.55.88-.04.07-.07.14-.09.22-.16.66.62,1.28,1.76,1.28s1.92-.62,1.76-1.28c-.02-.06-.04-.13-.07-.18Z"/>
              <g>
                <path class="cls-101" d="M57.09,69.11l-.1.03-.23-.44-.06-.11-.33-.61-.04-.08s-.03-.03-.07-.05c-.16-.11-.56-.34-1.1-.36-.02,0-.04,0-.06,0-.01,0-.03,0-.04,0-.56.01-.96.25-1.12.36-.03.02-.06.04-.07.05l-.05.09-.32.6h0s-.06.11-.06.11l-.24.44-.1-.03.66-1.23v-.02s.02,0,.02,0c0,0,0,0,.02-.02.1-.08.58-.42,1.28-.42h0s.02,0,.02,0c.71,0,1.18.34,1.28.42.01,0,.02.01.02.02h0s0,.01,0,.01v.02s.67,1.23.67,1.23Z"/>
                <path class="cls-112" d="M56.42,67.86h0s0-.01,0-.01c0,0,0,0-.02-.02h-.03s-.04,0-.1.02c-.2.03-.66.08-1.1.08-.02,0-.04,0-.06,0-.01,0-.03,0-.04,0-.48,0-.93-.06-1.12-.08-.06,0-.1-.01-.1-.01h-.03s-.02.01-.02.01h0s-.01.03-.01.03h0s.01.06.05.12c.11.22.45.7,1.23.73.02,0,.04,0,.06,0,.01,0,.03,0,.04,0,.71-.02,1.09-.53,1.22-.74.03-.05.05-.09.05-.09v-.02s0-.02,0-.02ZM55.16,68.64s-.03,0-.04,0c-.02,0-.04,0-.06,0-.78-.03-1.07-.52-1.15-.7.19.03.66.08,1.16.08.01,0,.03,0,.04,0,.02,0,.04,0,.06,0,.46,0,.93-.06,1.13-.08-.11.19-.47.68-1.13.7Z"/>
                <polygon class="cls-87" points="55.15 70.44 55.04 70.44 55.06 67.45 55.16 67.45 55.15 70.44"/>
              </g>
            </g>
            <g>
              <polygon class="cls-38" points="85.2 3.58 84.89 20.74 99.31 21.05 99.91 31.87 121.39 32.62 122.32 32.2 111.18 12.49 85.2 3.58"/>
              <path class="cls-52" d="M85.2,3.58l29.43-.65v18.12s-29.43-1-29.43-1.25V3.58Z"/>
              <path class="cls-53" d="M99.6,4.1c0,.16-.13.3-.3.3s-.3-.13-.3-.3.13-.3.3-.3.3.13.3.3Z"/>
              <polygon class="cls-50" points="99.6 13.55 99.91 31.01 122.32 32.2 124.2 14.15 99.6 13.55"/>
              <polygon class="cls-38" points="99.6 13.55 99.32 20.5 99.73 20.52 99.6 13.55"/>
              <path class="cls-48" d="M100.99,14.21c0,.16-.13.3-.3.3s-.3-.13-.3-.3.13-.3.3-.3.3.13.3.3Z"/>
              <path class="cls-47" d="M123.74,14.81c0,.16-.13.3-.3.3s-.3-.13-.3-.3.13-.3.3-.3.3.13.3.3Z"/>
            </g>
            <g>
              <polygon class="cls-38" points="43.46 33.3 48.17 33.3 48.46 27.52 43.71 28.24 43.46 33.3"/>
              <rect class="cls-85" x="43.71" y="27.52" width="4.75" height="4.74"/>
            </g>
            <g>
              <polygon class="cls-38" points="143.57 46.97 143.7 42.26 137.92 41.82 138.52 46.58 143.57 46.97"/>
              <rect class="cls-26" x="137.86" y="41.89" width="4.75" height="4.74" transform="translate(92.36 183.29) rotate(-88.52)"/>
            </g>
            <polygon class="cls-168" points=".93 100.47 5.99 100.89 22.58 131.48 18.39 131.48 .93 100.47"/>
            <polygon class="cls-134" points="178.33 103.51 182.76 103.35 162.5 131.07 157.76 131.48 178.33 103.51"/>
            <polygon class="cls-39" points="136.19 92.26 136.23 97.74 168.38 98.04 169.37 92.13 136.19 92.26"/>
            <path class="cls-35" d="M6.14,99.09l17.46,8.54-.24,4.79,133.9,7.75-.13-3.29,20.51-16.12-.78-2.64c-2.33-.02-170.51-1.51-170.51-1.51l-.21,2.49Z"/>
            <polygon class="cls-35" points="94.56 60.46 94.88 63.04 104.75 62.93 102.71 60.46 98.46 60.46 97.02 57.01 95.5 56.89 96.37 60.46 94.56 60.46"/>
            <g>
              <polygon class="cls-93" points="18.75 114.83 19.63 132.22 42.63 132.22 42.63 114.43 18.75 114.83"/>
              <polygon class="cls-92" points="46.88 115.31 42.63 114.43 42.63 132.22 46.88 131.13 46.88 115.31"/>
              <polygon class="cls-57" points="42.43 114.43 42.43 132.22 19.63 132.22 18.75 114.83 42.43 114.43"/>
              <polygon class="cls-125" points="18.75 114.83 41.91 114.43 41.91 132.22 19.63 132.22 18.75 114.83"/>
              <polygon class="cls-70" points="24.54 117.32 24.8 123.96 36.19 123.96 36.19 116.93 24.54 117.32"/>
              <g>
                <path class="cls-35" d="M24.1,127.29c1.21.97.95,3.52.59,4.5,0,0-1.86-.08-2.78-1.74-.92-1.66,2.19-2.76,2.19-2.76Z"/>
                <path class="cls-1" d="M21.28,128.7c0-.98.47-1.78,1.06-1.78l.69-.16s.09-.03.14-.03h.04s0,0,0,0c.02,0,.04,0,.06,0,.66,0,1.19.88,1.19,1.98s-.53,1.98-1.19,1.98c-.1,0-.19-.02-.28-.06l-.73-.15s-.07-.01-.1-.02h0c-.5-.14-.88-.87-.88-1.75Z"/>
                <path class="cls-13" d="M21.34,128.7c0,.91.43,1.65.96,1.65s.96-.74.96-1.65-.43-1.65-.96-1.65-.96.74-.96,1.65Z"/>
              </g>
              <g>
                <path class="cls-35" d="M28.72,127.29c1.22.97.95,3.52.59,4.5,0,0-1.86-.08-2.78-1.74-.92-1.66,2.19-2.76,2.19-2.76Z"/>
                <path class="cls-72" d="M25.91,128.7c0-.98.47-1.78,1.06-1.78l.69-.16s.09-.03.14-.03h.04s0,0,0,0c.02,0,.04,0,.06,0,.66,0,1.19.88,1.19,1.98s-.53,1.98-1.19,1.98c-.1,0-.19-.02-.28-.06l-.73-.15s-.07-.01-.1-.02h0c-.5-.14-.88-.87-.88-1.75Z"/>
                <ellipse class="cls-13" cx="26.93" cy="128.7" rx=".96" ry="1.65"/>
              </g>
              <g>
                <path class="cls-35" d="M33.35,127.29c1.21.97.95,3.52.59,4.5,0,0-1.86-.08-2.78-1.74-.92-1.66,2.19-2.76,2.19-2.76Z"/>
                <path class="cls-71" d="M30.54,128.7c0-.98.47-1.78,1.06-1.78l.69-.16s.09-.03.14-.03h.04s0,0,0,0c.02,0,.04,0,.06,0,.66,0,1.19.88,1.19,1.98s-.53,1.98-1.19,1.98c-.1,0-.19-.02-.28-.06l-.73-.15s-.07-.01-.1-.02h0c-.5-.14-.88-.87-.88-1.75Z"/>
                <ellipse class="cls-13" cx="31.56" cy="128.7" rx=".96" ry="1.65"/>
              </g>
              <g>
                <path class="cls-35" d="M37.98,127.29c1.21.97.95,3.52.59,4.5,0,0-1.86-.08-2.78-1.74-.92-1.66,2.19-2.76,2.19-2.76Z"/>
                <path class="cls-73" d="M35.16,128.7c0-.98.47-1.78,1.06-1.78l.69-.16s.09-.03.14-.03h.04s0,0,0,0c.02,0,.04,0,.06,0,.66,0,1.19.88,1.19,1.98s-.53,1.98-1.19,1.98c-.1,0-.19-.02-.28-.06l-.73-.15s-.07-.01-.1-.02h0c-.5-.14-.88-.87-.88-1.75Z"/>
                <path class="cls-13" d="M35.23,128.7c0,.91.43,1.65.96,1.65s.96-.74.96-1.65-.43-1.65-.96-1.65-.96.74-.96,1.65Z"/>
              </g>
              <polygon class="cls-35" points="24.8 123.96 25.17 123.96 24.8 117.68 36.19 117.68 36.19 116.93 24.54 117.32 24.8 123.96"/>
              <polygon class="cls-35" points="46.88 115.31 56.29 130.27 42.43 132.22 42.43 114.43 46.88 115.31"/>
            </g>
            <polygon class="cls-39" points="53.01 90.63 60.24 91.95 68.11 94.98 74.96 91.97 87.1 90.08 84.32 89.95 84.32 89.36 82.83 89.36 83.18 88.13 84.63 88.02 84.63 87.32 70.05 89.14 69.94 89.63 68.11 89.36 68.11 91.3 69.72 91.32 69.56 92.11 53.01 90.63"/>
          </g>
          <g>
            <path class="cls-108" d="M15.04,87.11l1.86-.7c-.02-.05-2.05-5.61-1.78-13.8.27-8,3.41-11.72,3.44-11.76l-1.49-1.31c-.15.17-3.64,4.23-3.93,13-.29,8.61,1.81,14.32,1.9,14.56Z"/>
            <path class="cls-182" d="M18.26,56.42c-1.18.93-1.94,2.58-1.94,2.96s.66,2.34,2.93,2.75l1.27-1.24-2.27-4.47Z"/>
            <path class="cls-136" d="M17.17,55.11s2.83,4.6,3.54,7.08c0,0-1.49,5.81.71,10.69,0,0,5.7-5.58,13.25-6.89.78-.14,1.58-.23,2.4-.26,0,0-2.83-5.03-9.56-6.44,0,0-2.83-5.52-3.4-7.58,0,0-1.63-1.63-4.46-.57-.19.07-.36.15-.52.24,0,0,0,0,0,0-2.26,1.2-1.95,3.73-1.95,3.73Z"/>
            <path class="cls-37" d="M17.17,55.11s2.83,4.6,3.54,7.08c0,0-1.49,5.81.71,10.69,0,0,5.7-5.58,13.25-6.89-.18-.05-.38-.07-.6-.07-3.19.01-10.98,3.81-11.16,3.38-.18-.43-1.13-6.05-.35-7.19.71-1.03,3.91-2.27,4.48-2.48-.39.14-2.01.71-3.06.96-1.2.28-3.61-1.17-4.46-2.94-.85-1.77-1.91-4.28-.38-6.28,0,0,0,0,0,0-2.26,1.2-1.95,3.73-1.95,3.73Z"/>
            <path class="cls-182" d="M37.07,65.73s-4.56,6.92-15.65,7.15c0,0,6.61-7.41,15.65-7.15Z"/>
            <path class="cls-81" d="M36.36,66.05s-5.42-.5-14.09,6.52c0,0,7.75.71,14.09-6.52Z"/>
            <path class="cls-23" d="M31.47,67.06c.53,1.11-1.39,4.66-5.48,2.81,0,0,1.02-.67,2.78-1.61,1.76-.94,2.7-1.2,2.7-1.2Z"/>
            <path class="cls-23" d="M33.74,63.47c-1.4.15-2.23-1.42-2.02-1.63.21-.21,2.54,1.58,2.02,1.63Z"/>
            <path class="cls-23" d="M24.68,55.32c.29.15.59.96.48,1.07-.27.28-.99-1.34-.48-1.07Z"/>
            <path class="cls-182" d="M8.2,87.11v2.25s2.64.85,8.12.85,10.29-.8,10.29-.8c-.28-1.65-.63-2.3-.63-2.3-5.08-.79-10.04-.66-13.64-.39-1.75.13-3.18.29-4.14.39Z"/>
            <path class="cls-37" d="M8.2,87.11v2.25s2.64.85,8.12.85l-.49-2.11-3.49-1.38c-1.75.13-3.18.29-4.14.39Z"/>
            <path class="cls-159" d="M25.99,87.11s-8.42,2.21-17.6,0c0,0,5.15-.68,10.35-.55,5.2.13,7.24.55,7.24.55Z"/>
            <path class="cls-94" d="M17.69,86.54s-.12-.39-.21-.58c0,0-2,0-3.17.27l-.38.42s1.84.34,3.76-.12Z"/>
            <path class="cls-16" d="M21.9,87.32l-.09-.29s-1.2-.14-2.02,0l-.12.29s.92.36,2.23,0Z"/>
            <path class="cls-25" d="M21.81,87.03s-.71.34-2.02,0c0,0,1.2-.12,2.02,0Z"/>
            <path class="cls-16" d="M21.52,87.04s-.39.17-1.29.04c0,0-.04-1.46.06-1.58.09-.12.79-.24.94-.08s.29,1.61.29,1.61Z"/>
            <path class="cls-23" d="M19.67,87.78c-2.07-.89-2.74.32-2.74.32,0,0,3.65.07,2.74-.32Z"/>
            <path class="cls-25" d="M21.22,85.43c.36.67-1.09.2-.94.08.2-.16.88-.18.94-.08Z"/>
            <path class="cls-25" d="M16.61,63.48c-.19-.79-1.53,1.01-2.05,2.57s-1.78,7.89-.24,14.07c1.28,5.13,1.88,5.04,2.01,4.95.13-.09-1.7-5.59-1.51-11.73.2-6.54,1.79-9.86,1.79-9.86Z"/>
            <circle class="cls-62" cx="29.62" cy="69.87" r="23.98" transform="translate(-44.02 88.2) rotate(-81.01)"/>
            <circle class="cls-63" cx="29.62" cy="69.87" r="16.01" transform="translate(-44.01 88.22) rotate(-81.02)"/>
          </g>
          <g>
            <path class="cls-113" d="M120.17,134.43h.86s.56-23.04,1.36-23.63c.8-.58,12-1.1,12-1.1l-13.1.45-1.13,24.28Z"/>
            <path class="cls-133" d="M157.98,87.74s-16.77-.81-18.83,1.08c-2.07,1.9-2.19,45.84-2.19,45.84h-.74s.56-48.59.56-48.59l22.75-1.38-1.55,3.05Z"/>
            <path class="cls-142" d="M159.71,134.65h.91s1.68-59.99.1-60.51l-1.57-.52-4.03.29,4.13,7.86.46,52.87Z"/>
            <path class="cls-84" d="M134.9,134.66s.12-56.79,1.34-58.67c1.22-1.87,22.81-3.1,22.91-2.37.33,2.61.56,61.02.56,61.02h-.97s-.66-46.63-.79-47.88c-.06-.6-20.18.05-20.66,1.07-.48,1.03-1.06,46.81-1.06,46.81h-1.33Z"/>
            <path class="cls-135" d="M119.22,134.43s.5-24.45,1.02-25.4c.52-.95,25.95-.92,25.95-.92l.25,26.31h-.67s-1.03-23.99-1.66-24.58c-.62-.59-21.78.13-22.32.6-.54.47-1.63,23.99-1.63,23.99h-.95Z"/>
            <path class="cls-148" d="M120.31,109.03l38.56-1.36s.39-2.83-.92-3.59c-1.3-.75-36.22.46-36.22.46,0,0-1.22,2.37-1.42,4.5Z"/>
            <path class="cls-103" d="M146.15,103.87c-2.07,1.05-3.09,4.36-3.09,4.36l-22.76.81s.11-3.34,1.42-4.5l24.42-.66Z"/>
            <path class="cls-153" d="M137.96,76.43s-1.52,3.39-1.15,8.71c.05.75.91.88.91.88,0,0,12.39-1.7,19.68-1.17l.25-10.7s-12.02-.42-19.69,2.28Z"/>
            <path class="cls-109" d="M157.65,74.15s-1.42.01-1.57.87c-.34,1.93-.74,7.19-.74,9.54l2.06.29.25-10.7Z"/>
            <path class="cls-74" d="M147.29,110.07c.31-.82,11.71-1.23,11.71-1.23l-.13-1.17-12.68.45.25,26.31h.74s-.19-23.59.1-24.36Z"/>
            <path class="cls-35" d="M136.9,85.47c7.08-4.14,18.45-.91,18.45-.91,0,0,.16-9.56,1.07-10.06.91-.49,1.24-.35,1.24-.35l.09,11.45s-15.39,1.14-18.07,1.08c-2.67-.06-2.77-1.21-2.77-1.21Z"/>
            <path class="cls-35" d="M120.31,109.03c4.53-2.87,23.87-3.18,23.87-3.18,0,0,.95-1.56,1.98-1.98,0,0,11.31-.21,11.79.21,1.34,1.14.92,3.59.92,3.59l-12.6,1.69-25.96-.33Z"/>
            <polygon class="cls-35" points="135.04 114.8 137.21 117.63 137.32 109.68 135.09 109.7 135.04 114.8"/>
            <polygon class="cls-35" points="158.32 108.86 159 108.83 159.12 110.59 158.41 114.95 158.32 108.86"/>
          </g>
        </g>
      </g>
    </g>
  </g>
</svg>