<?xml version="1.0" encoding="UTF-8"?>
<svg xmlns="http://www.w3.org/2000/svg" xmlns:xlink="http://www.w3.org/1999/xlink" viewBox="0 0 346.2 159.78">
  <defs>
    <style>
      .cls-1 {
        fill: url(#_161);
      }

      .cls-2 {
        fill: url(#_354-2);
      }

      .cls-3 {
        fill: url(#_85);
      }

      .cls-3, .cls-4, .cls-5, .cls-6, .cls-7 {
        mix-blend-mode: multiply;
      }

      .cls-3, .cls-5 {
        opacity: .6;
      }

      .cls-8 {
        fill: #920038;
      }

      .cls-9 {
        fill: url(#_73-2);
      }

      .cls-10 {
        fill: #ffe;
      }

      .cls-11 {
        fill: url(#_73);
      }

      .cls-12 {
        fill: url(#_354);
      }

      .cls-13 {
        isolation: isolate;
      }

      .cls-14 {
        fill: url(#_169);
      }

      .cls-4 {
        fill: #773d66;
      }

      .cls-4, .cls-6 {
        opacity: .5;
      }

      .cls-15 {
        fill: url(#_115);
      }

      .cls-16 {
        fill: url(#_169-2);
      }

      .cls-17 {
        fill: url(#_1408);
        mix-blend-mode: screen;
      }

      .cls-18 {
        fill: url(#_115-2);
      }

      .cls-5 {
        fill: url(#_85-2);
      }

      .cls-6, .cls-7 {
        fill: #80666e;
      }

      .cls-7 {
        opacity: .8;
      }
    </style>
    <linearGradient id="_161" data-name="  161" x1="10.4" y1="11.6" x2="115.86" y2="11.6" gradientUnits="userSpaceOnUse">
      <stop offset="0" stop-color="#59355c"/>
      <stop offset=".98" stop-color="#361545"/>
    </linearGradient>
    <radialGradient id="_1408" data-name="  1408" cx="1754.59" cy="6801.41" fx="1754.59" fy="6801.41" r="22.57" gradientTransform="translate(-4967.41 -3272.14) scale(2.87 .48)" gradientUnits="userSpaceOnUse">
      <stop offset="0" stop-color="#28bcfa"/>
      <stop offset=".28" stop-color="#1a7da6"/>
      <stop offset=".54" stop-color="#0f475f"/>
      <stop offset=".75" stop-color="#06202b"/>
      <stop offset=".91" stop-color="#01080b"/>
      <stop offset="1" stop-color="#000"/>
    </radialGradient>
    <linearGradient id="_115" data-name="  115" x1="-1164.21" y1="160.2" x2="-1147.91" y2="131.98" gradientTransform="translate(-838.83) rotate(-180) scale(1 -1)" gradientUnits="userSpaceOnUse">
      <stop offset="0" stop-color="#e00047"/>
      <stop offset="1" stop-color="#ff3434"/>
    </linearGradient>
    <linearGradient id="_354" data-name="  354" x1="-1145.44" y1="130.47" x2="-1145.44" y2="158.65" gradientTransform="translate(-838.83) rotate(-180) scale(1 -1)" gradientUnits="userSpaceOnUse">
      <stop offset="0" stop-color="#950047"/>
      <stop offset="1" stop-color="#b30034"/>
    </linearGradient>
    <linearGradient id="_169" data-name="  169" x1="304.06" y1="138.48" x2="307.22" y2="138.48" gradientUnits="userSpaceOnUse">
      <stop offset="0" stop-color="#b87777"/>
      <stop offset="1" stop-color="#efd1ae"/>
    </linearGradient>
    <linearGradient id="_73" data-name="  73" x1="-1143.88" y1="138.81" x2="-1143.88" y2="136.89" gradientTransform="translate(-838.83) rotate(-180) scale(1 -1)" gradientUnits="userSpaceOnUse">
      <stop offset="0" stop-color="#4f2c3b"/>
      <stop offset=".99" stop-color="#824e53"/>
    </linearGradient>
    <linearGradient id="_85" data-name="  85" x1="-1158.86" y1="163.29" x2="-1146.12" y2="141.23" gradientTransform="translate(-838.83) rotate(-180) scale(1 -1)" gradientUnits="userSpaceOnUse">
      <stop offset="0" stop-color="#fff"/>
      <stop offset="1" stop-color="#743f90"/>
    </linearGradient>
    <linearGradient id="_115-2" data-name="  115" x1="-1178.76" y1="161.08" x2="-1162.47" y2="132.87" xlink:href="#_115"/>
    <linearGradient id="_354-2" data-name="  354" x1="-1159.99" y1="131.35" x2="-1159.99" y2="159.53" xlink:href="#_354"/>
    <linearGradient id="_169-2" data-name="  169" x1="318.61" y1="139.36" x2="321.77" y2="139.36" xlink:href="#_169"/>
    <linearGradient id="_73-2" data-name="  73" x1="-1158.43" y1="139.69" x2="-1158.43" y2="137.77" xlink:href="#_73"/>
    <linearGradient id="_85-2" data-name="  85" x1="-1173.41" y1="164.17" x2="-1160.67" y2="142.11" xlink:href="#_85"/>
  </defs>
  <g class="cls-13">
    <g id="Layer_2" data-name="Layer 2">
      <g id="bunker">
        <g>
          <g>
            <polygon class="cls-1" points="12.01 7.68 10.4 8.79 11.05 15.63 114.96 15.33 115.86 14.33 115.86 7.58 12.01 7.68"/>
            <path class="cls-10" d="M15.24,8s-1.9.54-1.9,2.9,1.9,2.9,1.9,2.9h99.72s2.78-.72,2.78-2.9c0-2.32-2.78-2.9-2.78-2.9H15.24Z"/>
            <polygon class="cls-4" points="12.01 7.68 12.57 14.66 115.86 14.33 114.96 15.33 114.96 16.62 10.4 16.62 9.36 9.25 10.4 8.79 12.01 7.68"/>
            <ellipse class="cls-17" cx="64.74" cy="10.9" rx="64.74" ry="10.9"/>
          </g>
          <g>
            <path class="cls-4" d="M320.26,132.97h0s-3.65.69-3.65.69l-.06.2c-.81-.17-1.6-.34-2.36-.48-4.76-.89-8.48-1.19-8.48-1.19h0s-3.65.69-3.65.69l-1.44,5.17-.21.15-.41-.27c-.22-.21-.82-.04-1.34.38-.46.37-.7.81-.6,1.05,0,0,0,0,0,0l.21.37-2.75,1.95v15.31h5.15s9.4,0,9.4,0v.78h5.15s21.4,0,21.4,0v-21.69c-7.74-2.41-16.34-3.1-16.36-3.1ZM322.12,135.28s2.5.28,5.03.97c0,0-1.59,1.34-5.07,2.18v-3.03s.03-.08.05-.12ZM307.56,134.5s2.5.28,5.03.97c0,0-1.79,1.52-5.76,2.33.06-1.43.49-2.7.73-3.3h0ZM304.14,138.4h0s.11-.42.11-.42l-.1.42Z"/>
            <polygon class="cls-4" points="295.52 156.99 301.52 157.77 301.52 158.65 296.89 159 314.58 159 312.46 159.78 346.2 159.78 342.62 158.6 342.62 157 295.52 156.99"/>
            <g>
              <g>
                <path class="cls-8" d="M313.56,133.1s2.5.31,5.03,1.1c0,0-1.98,1.91-6.39,2.79v2.16l10.77-3.67-1.88-2.37-7.57-1.25.04,1.25Z"/>
                <path class="cls-15" d="M320.19,131.82c-4.76-1.01-8.48-1.35-8.48-1.35l-1.57,7.06-3.48,4.51v16.62h21.4v-24.65c-2.65-.94-5.4-1.65-7.88-2.18ZM313.72,132.67c2.05.02,3.69.26,4.89.53,1.64.37,2.48.79,2.48.79-1.31,2.72-4.9,3.72-6.87,4.08-.8.14-1.33.18-1.33.18-.34-2.79.83-5.59.83-5.59Z"/>
                <polygon class="cls-12" points="301.52 158.65 306.66 158.65 306.66 142.03 310.14 137.53 311.71 130.47 308.06 131.25 306.61 137.13 301.52 141.25 301.52 158.65"/>
                <path class="cls-8" d="M313.59,148.22l-2.33-2.2c-.82-.77-.85-2.07-.08-2.88l.63-.67c.77-.82,2.07-.85,2.88-.08l2.33,2.2,2.28-2.42c.72-.77,1.95-.8,2.71-.08l.84.79c.77.72.8,1.95.08,2.71l-2.28,2.42,2.33,2.2c.82.77.85,2.07.08,2.88l-.63.67c-.77.82-2.07.85-2.88.08l-2.33-2.2-2.28,2.42c-.72.77-1.95.8-2.71.08l-.84-.79c-.77-.72-.8-1.95-.08-2.71l2.28-2.42Z"/>
                <path class="cls-6" d="M313.59,148.22v.68s-2.28,2.42-2.28,2.42c-.26.28-.42.62-.49.97-.11-.58.06-1.2.49-1.66l2.28-2.42Z"/>
                <path class="cls-6" d="M322.02,142.77c-.77-.73-1.99-.69-2.71.08l-2.28,2.42-2.33-2.2c-.82-.77-2.11-.73-2.88.09l-.63.67c-.28.3-.46.67-.52,1.06-.1-.61.07-1.26.52-1.74l.63-.66c.77-.82,2.07-.86,2.88-.09l2.33,2.2,2.28-2.42c.72-.77,1.95-.8,2.71-.08l.84.79c.49.46.68,1.13.57,1.75-.07-.39-.26-.76-.57-1.06l-.84-.79Z"/>
                <path class="cls-6" d="M323.6,152.04c-.07-.43-.27-.83-.61-1.15l-2.33-2.2v-.69s2.33,2.2,2.33,2.2c.51.49.72,1.18.61,1.83Z"/>
                <path class="cls-6" d="M307.21,137.9c-1.35,3.29-4.74,3.29-4.74,3.29,0,0,.6-1.11,1.47-1.87,1.88-1.64,3.27-1.41,3.27-1.41Z"/>
                <path class="cls-14" d="M305.99,136.99l1.22.91s.17,1.08-.82,1.76c-1.03.71-1.75.12-1.75.12l-.58-1.16c.24-.89,1.36-1.83,1.94-1.63Z"/>
                <path class="cls-11" d="M304.66,137.42c-.52.47-.76,1.05-.55,1.29.22.24.82.05,1.34-.43.52-.47.76-1.05.55-1.29-.22-.24-.82-.05-1.34.43Z"/>
                <polygon class="cls-3" points="328.07 149.77 326.89 155.16 317.59 156.14 317.13 154.26 309.35 154.26 309.5 155.7 306.66 155.85 306.61 151.15 305.17 155.26 302.35 155.26 301.52 144.56 301.52 158.65 328.07 158.65 328.07 149.77"/>
              </g>
              <path class="cls-7" d="M328.07,134v24.65h-18.24s.8-16.58.8-16.58l3.59-3.99c1.97-.36,5.57-1.36,6.87-4.08,0,0-.84-.42-2.48-.79l1.58-1.38,7.88,2.18Z"/>
              <g>
                <path class="cls-8" d="M328.11,133.98s2.5.31,5.03,1.1c0,0-1.98,1.91-6.39,2.79v2.16l10.77-3.67-1.88-2.37-7.57-1.25.04,1.25Z"/>
                <path class="cls-18" d="M321.22,142.91v16.62h21.4v-24.65c-7.75-2.75-16.36-3.53-16.36-3.53l-1.57,7.06-3.48,4.51ZM328.27,133.56c4.85.05,7.37,1.32,7.37,1.32-1.84,3.82-8.21,4.26-8.21,4.26-.34-2.79.83-5.59.83-5.59Z"/>
                <polygon class="cls-2" points="316.07 159.53 321.22 159.53 321.22 142.91 324.69 138.41 326.26 131.35 322.61 132.13 321.17 138.01 316.07 142.13 316.07 159.53"/>
                <path class="cls-8" d="M328.15,149.1l-2.33-2.2c-.82-.77-.85-2.07-.08-2.88l.63-.67c.77-.82,2.07-.85,2.88-.08l2.33,2.2,2.28-2.42c.72-.77,1.95-.8,2.71-.08l.84.79c.77.72.8,1.95.08,2.71l-2.28,2.42,2.33,2.2c.82.77.85,2.07.08,2.88l-.63.67c-.77.82-2.07.85-2.88.08l-2.33-2.2-2.28,2.42c-.72.77-1.95.8-2.71.08l-.84-.79c-.77-.72-.8-1.95-.08-2.71l2.28-2.42Z"/>
                <path class="cls-6" d="M328.15,149.1v.69s-2.28,2.42-2.28,2.42c-.26.28-.42.62-.49.97-.11-.58.06-1.2.49-1.66l2.28-2.42Z"/>
                <path class="cls-6" d="M336.57,143.65c-.77-.73-1.99-.69-2.71.08l-2.28,2.42-2.33-2.2c-.82-.77-2.11-.73-2.88.09l-.63.67c-.29.3-.46.67-.52,1.06-.1-.61.07-1.26.52-1.74l.63-.66c.77-.82,2.07-.86,2.88-.09l2.33,2.2,2.28-2.42c.72-.77,1.95-.8,2.71-.08l.84.79c.49.46.68,1.13.57,1.75-.07-.39-.26-.76-.57-1.06l-.84-.79Z"/>
                <path class="cls-6" d="M338.15,152.92c-.07-.43-.27-.83-.61-1.15l-2.33-2.2v-.69s2.33,2.2,2.33,2.2c.51.48.72,1.18.61,1.83Z"/>
                <path class="cls-6" d="M321.76,138.78c-1.35,3.29-4.74,3.29-4.74,3.29,0,0,.6-1.11,1.47-1.87,1.88-1.64,3.27-1.41,3.27-1.41Z"/>
                <path class="cls-16" d="M320.54,137.87l1.22.91s.17,1.08-.82,1.76c-1.03.71-1.75.12-1.75.12l-.58-1.16c.24-.89,1.36-1.83,1.94-1.63Z"/>
                <path class="cls-9" d="M319.21,138.3c-.52.47-.76,1.05-.55,1.29.22.24.82.05,1.34-.43.52-.47.76-1.05.55-1.29s-.82-.05-1.34.43Z"/>
                <polygon class="cls-5" points="342.62 150.65 341.44 156.04 332.14 157.02 331.68 155.14 323.9 155.14 324.05 156.58 321.22 156.73 321.17 152.03 319.72 156.14 316.9 156.14 316.07 145.44 316.07 159.53 342.62 159.53 342.62 150.65"/>
              </g>
            </g>
          </g>
        </g>
      </g>
    </g>
  </g>
</svg>