<?xml version="1.0" encoding="UTF-8"?>
<svg xmlns="http://www.w3.org/2000/svg" xmlns:xlink="http://www.w3.org/1999/xlink" viewBox="0 0 486.9 58.8">
  <defs>
    <style>
      .cls-1 {
        fill: url(#_161);
      }

      .cls-2 {
        fill: url(#_269-4);
      }

      .cls-3 {
        fill: url(#_269-5);
      }

      .cls-4 {
        fill: url(#_269-8);
      }

      .cls-5 {
        fill: url(#_161-2);
      }

      .cls-6 {
        fill: #ffe;
      }

      .cls-7 {
        isolation: isolate;
      }

      .cls-8 {
        fill: #773d66;
        mix-blend-mode: multiply;
        opacity: .5;
      }

      .cls-9 {
        fill: url(#_269-6);
      }

      .cls-10 {
        fill: url(#_269-3);
      }

      .cls-11 {
        fill: url(#_269-7);
      }

      .cls-12 {
        fill: url(#_1412);
      }

      .cls-12, .cls-13 {
        mix-blend-mode: screen;
      }

      .cls-14 {
        fill: url(#_269-2);
      }

      .cls-15 {
        fill: url(#_269);
      }

      .cls-13 {
        fill: url(#_1412-2);
      }
    </style>
    <linearGradient id="_161" data-name="  161" x1="449.05" y1="38.58" x2="474.29" y2="38.58" gradientUnits="userSpaceOnUse">
      <stop offset="0" stop-color="#59355c"/>
      <stop offset=".98" stop-color="#361545"/>
    </linearGradient>
    <linearGradient id="_269" data-name="  269" x1="450.58" y1="38.15" x2="472.76" y2="38.15" gradientUnits="userSpaceOnUse">
      <stop offset="0" stop-color="#85639e"/>
      <stop offset=".98" stop-color="#726587"/>
    </linearGradient>
    <linearGradient id="_269-2" data-name="  269" x1="456.62" y1="38.14" x2="467.98" y2="38.14" xlink:href="#_269"/>
    <linearGradient id="_269-3" data-name="  269" x1="460.77" y1="38.7" x2="462.89" y2="38.7" xlink:href="#_269"/>
    <linearGradient id="_269-4" data-name="  269" x1="447.97" y1="38.55" x2="475.43" y2="38.55" xlink:href="#_269"/>
    <radialGradient id="_1412" data-name="  1412" cx="462.44" cy="34.33" fx="462.44" fy="34.33" r="24.46" gradientTransform="translate(113.55 -271.13) rotate(36.96)" gradientUnits="userSpaceOnUse">
      <stop offset="0" stop-color="#0af"/>
      <stop offset=".09" stop-color="#0091da"/>
      <stop offset=".23" stop-color="#006ba1"/>
      <stop offset=".37" stop-color="#004a70"/>
      <stop offset=".5" stop-color="#002f47"/>
      <stop offset=".64" stop-color="#001a28"/>
      <stop offset=".77" stop-color="#000c12"/>
      <stop offset=".89" stop-color="#000304"/>
      <stop offset="1" stop-color="#000"/>
    </radialGradient>
    <linearGradient id="_161-2" data-name="  161" x1="-2539.24" y1="28.71" x2="-2514" y2="28.71" gradientTransform="translate(-2501.39) rotate(-180) scale(1 -1)" xlink:href="#_161"/>
    <linearGradient id="_269-5" data-name="  269" x1="-2537.71" y1="28.28" x2="-2515.53" y2="28.28" gradientTransform="translate(-2501.39) rotate(-180) scale(1 -1)" xlink:href="#_269"/>
    <linearGradient id="_269-6" data-name="  269" x1="-2531.67" y1="28.27" x2="-2520.31" y2="28.27" gradientTransform="translate(-2501.39) rotate(-180) scale(1 -1)" xlink:href="#_269"/>
    <linearGradient id="_269-7" data-name="  269" x1="-2527.52" y1="28.83" x2="-2525.4" y2="28.83" gradientTransform="translate(-2501.39) rotate(-180) scale(1 -1)" xlink:href="#_269"/>
    <linearGradient id="_269-8" data-name="  269" x1="-2540.32" y1="28.68" x2="-2512.86" y2="28.68" gradientTransform="translate(-2501.39) rotate(-180) scale(1 -1)" xlink:href="#_269"/>
    <radialGradient id="_1412-2" data-name="  1412" cx="-2525.85" cy="24.46" fx="-2525.85" fy="24.46" r="24.46" gradientTransform="translate(-2465.38 -401.23) rotate(-170.85) scale(1 -1)" xlink:href="#_1412"/>
  </defs>
  <g class="cls-7">
    <g id="Layer_2" data-name="Layer 2">
      <g id="bunker">
        <g>
          <g>
            <path class="cls-1" d="M474.02,36.52c1.58,5.98-3.77,12.07-12.35,12.07s-13.92-6.1-12.35-12.07c1.26-4.76,6.69-7.97,12.35-7.97s11.09,3.2,12.35,7.97Z"/>
            <path class="cls-15" d="M472.57,37.02c1.21,5.1-3.55,10.14-10.9,10.14s-12.11-5.05-10.9-10.14c.99-4.17,5.8-7.89,10.9-7.89s9.91,3.72,10.9,7.89Z"/>
            <path class="cls-6" d="M471.4,35.41c-5.05-8.91-16.35-5.67-19.02-.25-.24.48-.41.99-.51,1.53-.89,4.54,3.5,8.86,9.97,8.86s10.86-4.32,9.97-8.86c-.09-.44-.18-.89-.4-1.28Z"/>
            <path class="cls-14" d="M467.98,38.15c.02,1.14-.43,2.3-1.41,3.24-.49.47-1.1.89-1.84,1.18-.73.3-1.59.47-2.45.48-.86,0-1.73-.15-2.48-.44-.75-.29-1.39-.71-1.87-1.19-.98-.96-1.36-2.15-1.3-3.27.08-1.13.59-2.23,1.53-3.15.46-.46,1.01-.89,1.7-1.23.69-.34,1.54-.55,2.42-.55.87,0,1.73.22,2.41.56.69.34,1.24.77,1.73,1.22.94.91,1.53,2.01,1.57,3.15ZM466.78,38.15c.02-.48-.06-.97-.23-1.44-.17-.47-.47-.92-.89-1.3-.41-.39-.97-.68-1.57-.84-.6-.16-1.21-.22-1.81-.23-.6,0-1.21.07-1.8.24-.59.17-1.16.45-1.59.83-.85.76-1.22,1.78-1.15,2.75.08.98.58,1.91,1.39,2.62.81.71,1.94,1.2,3.16,1.21,1.22.02,2.42-.45,3.22-1.18.81-.73,1.24-1.69,1.28-2.65Z"/>
            <path class="cls-10" d="M460.77,28.56s.55-.62.97-.67.95.76.95.76c0,0,.57,12.05-.2,19.95,0,0-.16.74-.66.9-.49.15-1.06-.9-1.06-.9,0,0,.84-2.87.97-10.45.13-7.57-.97-9.59-.97-9.59Z"/>
            <path class="cls-2" d="M449.05,37.97s-1.08.25-1.08.77c0,.57,1.08.66,1.08.66,0,0,14.72-1.57,25.01,0,0,0,1.29-.42,1.37-.92.07-.5-1.13-.78-1.13-.78,0,0-13.8-.04-25.24.26Z"/>
            <circle class="cls-12" cx="462.44" cy="34.33" r="24.46" transform="translate(72.27 284.93) rotate(-36.96)"/>
            <path class="cls-8" d="M451.58,32.59c-8.44,6.81-2.18,15.69,5.34,17.63,6.3,1.63,17.75-2.02,17.37-11.67,0,0-.28,4.05-5.72,6.8-5.44,2.76-13.89,2.81-16.83-2.3-2.94-5.11-.16-10.47-.16-10.47Z"/>
          </g>
          <g>
            <path class="cls-5" d="M12.88,26.65c-1.58,5.98,3.77,12.07,12.35,12.07s13.92-6.1,12.35-12.07c-1.26-4.76-6.69-7.97-12.35-7.97s-11.09,3.2-12.35,7.97Z"/>
            <path class="cls-3" d="M14.33,27.15c-1.21,5.1,3.55,10.14,10.9,10.14s12.11-5.05,10.9-10.14c-.99-4.17-5.8-7.89-10.9-7.89s-9.91,3.72-10.9,7.89Z"/>
            <path class="cls-6" d="M15.51,25.54c5.05-8.91,16.35-5.67,19.02-.25.24.48.41.99.51,1.53.89,4.54-3.5,8.86-9.97,8.86s-10.86-4.32-9.97-8.86c.09-.44.18-.89.4-1.28Z"/>
            <path class="cls-9" d="M20.49,25.12c.48-.45,1.04-.87,1.73-1.22.68-.34,1.54-.57,2.41-.56.87,0,1.73.21,2.42.55.7.34,1.24.78,1.7,1.23.94.91,1.45,2.02,1.53,3.15.07,1.12-.31,2.31-1.3,3.27-.49.48-1.12.9-1.87,1.19-.75.29-1.62.45-2.48.44-.86,0-1.72-.18-2.45-.48-.74-.3-1.36-.71-1.84-1.18-.98-.95-1.43-2.11-1.41-3.24.04-1.14.63-2.25,1.57-3.15ZM21.4,30.93c.81.73,2,1.2,3.22,1.18,1.23-.01,2.36-.5,3.16-1.21.81-.71,1.31-1.65,1.39-2.62.07-.97-.31-1.98-1.15-2.75-.43-.38-1-.66-1.59-.83-.6-.17-1.2-.24-1.8-.24-.6,0-1.21.07-1.81.23-.6.16-1.16.46-1.57.84-.42.38-.72.83-.89,1.3-.17.47-.25.96-.23,1.44.03.96.46,1.92,1.28,2.65Z"/>
            <path class="cls-11" d="M26.14,18.69s-.55-.62-.97-.67c-.42-.05-.95.76-.95.76,0,0-.57,12.06.2,19.95,0,0,.16.74.66.9.49.15,1.06-.9,1.06-.9,0,0-.84-2.87-.97-10.45-.13-7.57.97-9.59.97-9.59Z"/>
            <path class="cls-4" d="M37.85,28.1s1.08.25,1.08.77c0,.57-1.08.66-1.08.66,0,0-14.72-1.57-25.01,0,0,0-1.29-.42-1.37-.92-.07-.5,1.13-.78,1.13-.78,0,0,13.8-.04,25.24.26Z"/>
            <circle class="cls-13" cx="24.46" cy="24.46" r="24.46" transform="translate(-3.58 4.2) rotate(-9.15)"/>
            <path class="cls-8" d="M35.32,22.72c8.44,6.81,2.18,15.69-5.34,17.63-6.3,1.63-17.75-2.02-17.37-11.67,0,0,.28,4.05,5.72,6.8s13.89,2.81,16.83-2.3c2.94-5.11.16-10.47.16-10.47Z"/>
          </g>
        </g>
      </g>
    </g>
  </g>
</svg>